<?xml version="1.0" standalone="no"?>
<!DOCTYPE svg PUBLIC "-//W3C//DTD SVG 20010904//EN"
 "http://www.w3.org/TR/2001/REC-SVG-20010904/DTD/svg10.dtd">
<svg version="1.0" xmlns="http://www.w3.org/2000/svg"
 width="3180.000000pt" height="3180.000000pt" viewBox="0 0 3180.000000 3180.000000"
 preserveAspectRatio="xMidYMid meet">
<metadata>
Created by potrace 1.11, written by Peter Selinger 2001-2013
</metadata>
<g transform="translate(0.000000,3180.000000) scale(0.100000,-0.100000)"
fill="#000000" stroke="none">
<path d="M19655 20224 c-70 -17 -201 -95 -211 -126 -3 -10 -9 -18 -13 -18 -11
0 -91 -126 -91 -143 0 -7 -4 -17 -9 -22 -12 -13 -40 -107 -49 -165 -10 -62 -9
-3124 1 -3180 24 -138 102 -291 185 -364 19 -17 43 -39 53 -48 11 -10 24 -18
29 -18 6 0 21 -7 34 -15 28 -18 52 -24 124 -29 220 -16 425 205 468 504 9 59
10 3038 1 3113 -13 118 -84 298 -136 348 -9 8 -30 31 -47 50 -33 37 -69 62
-124 85 -19 8 -42 18 -50 22 -17 9 -134 13 -165 6z"/>
<path d="M20600 19280 c-6 -11 -7 -20 -3 -20 7 0 8 -29 4 -155 -1 -16 -1 -52
0 -80 1 -27 1 -63 0 -80 -1 -16 -1 -52 0 -80 1 -27 1 -63 0 -80 -1 -16 -1 -52
0 -80 1 -27 1 -63 0 -80 -1 -16 -1 -52 0 -80 1 -27 1 -63 0 -80 -1 -16 0 -50
2 -75 1 -25 -1 -57 -5 -72 -3 -16 -3 -28 2 -28 4 0 6 -17 3 -38 -6 -44 -3 -45
117 -85 89 -30 166 -60 229 -90 25 -11 48 -21 51 -22 11 -1 179 -90 239 -126
34 -22 67 -39 72 -39 5 0 9 -4 9 -10 0 -5 5 -10 12 -10 6 0 26 -11 44 -25 18
-14 37 -25 42 -25 6 0 12 -4 14 -8 2 -4 42 -37 89 -73 304 -228 581 -540 763
-859 54 -94 173 -346 180 -380 1 -3 5 -11 9 -17 5 -7 10 -21 12 -30 2 -10 9
-31 16 -48 7 -16 13 -32 14 -35 0 -3 9 -32 19 -65 10 -33 20 -67 21 -75 2 -8
4 -15 5 -15 1 0 3 -8 5 -17 2 -9 8 -33 15 -52 6 -19 10 -41 9 -48 -1 -7 1 -20
4 -28 8 -17 25 -101 31 -146 2 -17 7 -49 10 -70 12 -76 24 -235 27 -369 1 -35
-11 -274 -15 -295 -3 -14 -8 -50 -11 -80 -3 -30 -8 -68 -11 -85 -3 -16 -7 -41
-9 -55 -1 -14 -4 -25 -5 -25 -1 0 -4 -13 -6 -30 -3 -16 -14 -64 -25 -105 -11
-41 -22 -85 -24 -97 -3 -12 -16 -53 -29 -92 -13 -38 -21 -72 -18 -75 3 -4 0
-6 -7 -6 -7 0 -9 -4 -6 -10 3 -5 2 -10 -2 -10 -5 0 -9 -9 -10 -19 -1 -10 -11
-39 -22 -63 -11 -24 -21 -50 -23 -57 -2 -8 -35 -77 -74 -155 -73 -146 -160
-294 -220 -371 -18 -25 -31 -45 -26 -45 4 0 2 -4 -4 -8 -5 -4 -37 -41 -69 -82
-139 -178 -366 -399 -536 -523 -98 -71 -153 -108 -209 -142 -36 -22 -67 -42
-70 -45 -15 -16 -348 -180 -364 -180 -2 0 -21 -8 -42 -17 -22 -9 -43 -18 -49
-19 -5 -1 -44 -15 -85 -30 -41 -14 -84 -28 -95 -30 -11 -2 -42 -10 -70 -19
-27 -8 -51 -15 -52 -15 -2 0 -5 -1 -8 -1 -3 -1 -9 -3 -15 -4 -5 -1 -11 -3 -12
-5 -2 -1 -12 -3 -23 -5 -11 -2 -45 -8 -75 -14 -30 -7 -71 -14 -90 -17 -19 -3
-48 -8 -65 -11 -33 -5 -67 -9 -165 -19 -150 -15 -635 -2 -635 16 0 1 -11 3
-25 4 -117 12 -360 69 -510 121 -58 20 -109 37 -115 39 -39 11 -243 105 -312
142 -159 87 -212 119 -367 228 -140 98 -325 267 -466 426 -30 34 -60 67 -66
73 -30 33 -185 248 -195 271 -7 14 -16 26 -21 26 -4 0 -8 4 -8 9 0 5 -19 40
-42 77 -44 74 -198 389 -198 407 0 3 -5 18 -12 34 -6 15 -12 31 -13 36 -2 4
-4 9 -5 12 -1 3 -3 8 -4 13 -1 4 -5 13 -9 20 -5 6 -6 12 -3 12 3 0 -2 16 -10
36 -8 20 -13 39 -10 42 3 3 1 11 -4 18 -6 6 -13 21 -15 33 -3 12 -7 29 -10 39
-12 44 -46 201 -50 232 -2 19 -6 44 -9 55 -9 36 -20 139 -20 192 -1 29 -4 53
-7 53 -8 0 -5 333 4 347 4 6 3 14 -3 18 -6 4 -8 9 -6 13 2 4 7 36 11 72 7 72
10 94 21 160 4 25 8 54 10 65 5 31 14 73 30 139 8 34 16 68 18 76 15 60 28
108 36 125 5 11 14 38 21 60 51 171 227 532 307 630 4 6 11 17 14 25 9 23 166
229 228 300 116 133 280 288 418 396 59 45 108 79 282 194 61 40 325 172 425
211 33 13 62 26 65 29 3 3 12 6 20 8 8 1 36 10 63 19 l47 17 1 115 c0 151 0
931 0 954 -1 18 -1 18 -81 3 -28 -5 -74 -18 -140 -38 -36 -11 -75 -22 -87 -24
-13 -2 -80 -25 -150 -50 -71 -25 -138 -48 -150 -51 -13 -3 -23 -9 -23 -14 0
-5 -3 -8 -8 -7 -16 6 -432 -189 -452 -211 -3 -3 -25 -17 -50 -30 -25 -14 -71
-42 -103 -63 -32 -21 -61 -38 -64 -38 -2 0 -15 -8 -28 -17 -12 -10 -33 -25
-45 -33 -12 -8 -45 -32 -73 -53 -29 -21 -63 -46 -76 -55 -24 -17 -117 -91
-160 -127 -132 -109 -369 -346 -480 -480 -45 -55 -91 -110 -102 -121 -10 -12
-19 -25 -19 -28 0 -4 -9 -17 -21 -29 -28 -30 -199 -288 -240 -362 -18 -33 -36
-62 -39 -65 -4 -3 -28 -48 -54 -100 -26 -52 -51 -102 -56 -110 -29 -56 -74
-163 -72 -172 1 -5 -2 -8 -7 -8 -5 0 -11 -10 -14 -22 -3 -13 -19 -59 -37 -103
-45 -115 -109 -315 -136 -425 -25 -104 -46 -196 -54 -245 -5 -33 -12 -71 -14
-85 -5 -25 -13 -81 -23 -155 -3 -22 -6 -59 -6 -82 -1 -24 -4 -43 -7 -43 -18 0
-15 -587 4 -740 2 -19 7 -60 11 -90 10 -79 12 -95 21 -142 4 -24 8 -50 9 -58
1 -8 7 -40 13 -70 7 -30 14 -64 16 -75 2 -11 12 -51 21 -90 9 -38 18 -77 20
-85 2 -8 4 -16 5 -17 2 -2 3 -6 4 -10 18 -68 83 -270 96 -298 5 -11 21 -50 34
-88 28 -76 44 -113 89 -207 17 -36 32 -67 33 -70 2 -12 18 -45 23 -50 3 -3 28
-49 56 -102 27 -54 53 -98 57 -98 5 0 7 -3 6 -7 -1 -5 10 -27 25 -50 15 -24
27 -47 27 -53 0 -5 5 -10 10 -10 6 0 10 -7 10 -15 0 -8 5 -15 10 -15 6 0 10
-7 10 -15 0 -8 5 -15 10 -15 6 0 10 -7 10 -15 0 -8 5 -15 10 -15 6 0 10 -5 10
-11 0 -6 9 -23 20 -37 12 -15 60 -79 107 -142 48 -63 92 -120 97 -126 6 -6 29
-33 51 -59 77 -93 220 -240 350 -359 70 -64 73 -67 135 -116 30 -25 57 -47 60
-50 18 -19 172 -130 180 -130 6 0 10 -4 10 -8 0 -5 12 -15 28 -23 15 -7 34
-19 42 -26 25 -23 90 -63 100 -63 6 0 10 -4 10 -10 0 -5 4 -10 9 -10 12 0 115
-63 119 -72 2 -5 10 -8 19 -8 8 0 27 -8 41 -19 47 -33 412 -205 412 -194 0 3
6 0 13 -6 8 -6 17 -8 20 -4 4 3 7 1 7 -5 0 -7 8 -12 18 -12 10 0 22 -3 26 -7
3 -4 12 -8 19 -10 7 -1 62 -20 122 -41 99 -34 208 -67 253 -77 9 -2 44 -11 77
-19 33 -9 71 -19 85 -21 14 -3 36 -7 50 -10 36 -9 57 -13 130 -25 36 -6 76
-13 90 -15 14 -3 45 -7 70 -10 25 -3 61 -7 80 -10 228 -31 793 -25 980 11 14
3 39 7 55 8 37 4 151 24 185 32 14 3 36 7 50 9 14 2 25 4 25 5 0 1 11 4 25 6
28 5 142 34 235 59 95 26 293 95 365 127 25 11 50 21 55 23 12 2 42 15 110 46
28 12 52 23 55 24 9 3 125 61 150 75 14 8 27 14 30 15 6 0 242 137 255 147 6
5 47 33 93 63 80 52 284 203 327 242 12 10 59 52 105 93 122 107 307 297 385
393 17 21 41 50 55 65 14 15 34 40 45 56 11 15 25 33 31 40 6 6 27 36 48 66
21 30 41 57 45 60 4 3 34 47 67 98 74 116 75 119 155 260 27 46 100 191 127
252 57 126 72 164 72 175 0 8 3 15 8 17 11 5 115 309 128 377 3 13 9 31 13 40
5 9 12 32 15 52 3 20 8 42 10 50 3 8 8 26 11 42 13 69 16 83 22 102 3 11 7 31
9 45 3 28 11 75 17 105 8 36 20 129 23 170 1 22 3 40 4 40 13 0 18 610 7 740
-4 44 -9 93 -12 110 -2 16 -6 52 -10 80 -3 27 -10 70 -15 95 -5 25 -11 59 -14
75 -12 78 -65 305 -85 365 -5 14 -19 59 -31 100 -12 41 -26 84 -30 95 -5 11
-27 70 -50 130 -23 61 -53 134 -66 163 -13 28 -24 53 -24 55 1 9 -158 309
-193 364 -15 24 -27 47 -27 53 0 5 -4 10 -10 10 -5 0 -12 11 -16 25 -3 14 -9
25 -14 25 -4 0 -15 16 -26 35 -10 19 -22 35 -26 35 -5 0 -8 5 -8 10 0 9 -123
184 -140 200 -3 3 -18 23 -35 45 -16 22 -36 47 -45 55 -8 8 -33 38 -55 65 -54
68 -346 360 -420 421 -33 27 -65 54 -71 59 -6 6 -26 21 -44 35 -18 14 -38 30
-44 35 -48 45 -314 223 -446 300 -82 47 -287 151 -380 193 -65 29 -279 113
-299 117 -9 2 -29 9 -46 16 -16 6 -34 13 -40 14 -31 8 -134 38 -155 46 -24 9
-42 13 -102 24 -15 3 -38 9 -52 15 -15 5 -26 7 -26 5 0 -2 -11 0 -25 5 -20 8
-27 6 -35 -10z"/>
<path d="M718 18215 c-2 -1 -23 -5 -48 -9 -25 -3 -70 -13 -100 -22 -30 -8 -65
-18 -77 -21 -13 -3 -23 -10 -23 -16 0 -6 -3 -8 -6 -4 -7 7 -81 -33 -146 -79
-108 -77 -204 -186 -280 -320 l-33 -59 0 -2435 0 -2435 788 0 c780 0 787 0
788 20 0 11 1 465 1 1008 1 761 4 987 13 983 20 -7 330 -220 333 -228 2 -4 8
-8 14 -8 8 0 152 -94 168 -110 3 -3 95 -65 205 -139 110 -74 202 -138 203
-143 2 -4 9 -8 15 -9 7 0 39 -20 72 -44 33 -25 73 -52 89 -61 16 -9 38 -25 49
-35 12 -10 26 -19 33 -19 7 0 14 -4 16 -8 2 -5 80 -60 173 -122 94 -63 172
-118 173 -122 2 -4 8 -8 14 -8 6 0 27 -13 48 -30 21 -16 42 -30 48 -30 6 0 12
-3 14 -7 5 -12 155 -113 166 -113 6 0 12 -4 14 -8 1 -4 53 -42 113 -82 61 -41
112 -78 113 -82 2 -5 10 -8 18 -8 8 0 14 -4 14 -10 0 -5 7 -10 15 -10 8 0 15
-4 15 -10 0 -5 6 -10 13 -10 7 0 22 -8 33 -17 34 -30 83 -63 94 -63 5 0 10 -4
10 -10 0 -5 5 -10 11 -10 6 0 17 -6 24 -12 29 -26 44 -38 49 -38 4 0 263 -175
292 -197 5 -4 18 -12 27 -18 9 -5 76 -50 149 -100 l132 -90 1060 -1 c584 0
1065 1 1069 4 8 4 -159 112 -174 112 -5 0 -9 5 -9 10 0 6 -7 10 -15 10 -8 0
-15 5 -15 10 0 6 -6 10 -13 10 -7 0 -31 13 -53 30 -21 16 -42 30 -46 30 -4 0
-34 18 -67 40 -33 22 -65 40 -71 40 -5 0 -10 4 -10 9 0 5 -10 13 -22 17 -12 3
-26 10 -32 15 -16 13 -72 49 -146 94 -36 21 -66 43 -68 47 -2 4 -8 8 -14 8 -5
0 -24 10 -41 22 -18 13 -36 23 -40 23 -4 0 -12 7 -17 15 -5 8 -10 12 -10 7 0
-8 -83 44 -88 56 -2 4 -8 7 -14 7 -5 0 -29 14 -53 30 -24 17 -48 30 -54 30 -6
0 -11 5 -11 10 0 6 -4 10 -9 10 -5 0 -65 35 -133 78 -68 42 -135 83 -151 91
-15 8 -27 18 -27 23 0 4 -4 8 -9 8 -11 0 -139 78 -158 96 -6 6 -25 17 -42 24
-17 7 -31 16 -31 20 0 4 -11 11 -25 14 -14 4 -25 11 -25 16 0 6 -4 10 -9 10
-12 0 -115 63 -119 73 -2 4 -10 7 -18 7 -8 0 -14 5 -14 10 0 6 -5 10 -11 10
-5 0 -40 19 -77 43 -37 24 -81 52 -99 63 -112 67 -229 139 -233 144 -3 3 -17
11 -32 19 -16 8 -28 18 -28 23 0 4 -9 8 -20 8 -11 0 -20 3 -20 8 0 4 -20 18
-45 32 -25 14 -45 28 -45 32 0 5 -5 8 -11 8 -6 0 -42 20 -80 45 -38 25 -74 45
-79 45 -5 0 -13 8 -19 18 -5 9 -12 16 -16 14 -3 -2 -28 11 -55 27 -28 17 -53
31 -56 30 -4 0 -10 4 -13 9 -3 5 -60 42 -126 83 -66 40 -121 77 -123 81 -2 4
-8 8 -14 8 -5 0 -29 14 -53 30 -24 17 -48 30 -54 30 -6 0 -11 5 -11 10 0 6 -5
10 -10 10 -6 0 -44 23 -86 50 -41 28 -77 50 -80 50 -2 0 -59 35 -127 78 -67
43 -129 81 -137 85 -8 4 -71 43 -140 86 -69 44 -168 106 -220 137 -52 32 -113
70 -135 85 -22 14 -64 41 -92 59 -29 19 -53 34 -53 36 0 5 132 84 141 84 5 0
9 5 9 10 0 6 7 10 15 10 8 0 15 4 15 8 0 5 12 14 26 20 14 7 63 37 110 67 46
30 88 55 94 55 5 0 10 4 10 8 0 5 12 14 28 21 15 7 59 34 97 59 39 26 80 52
90 59 11 7 62 38 113 70 51 32 104 65 117 73 130 81 231 145 235 149 3 4 22
15 43 26 20 11 37 23 37 27 0 5 5 8 10 8 12 0 92 51 102 65 4 5 8 6 8 1 0 -5
8 -2 18 6 19 17 241 158 248 158 3 0 10 4 17 10 29 24 117 78 117 72 0 -4 4
-2 8 3 4 6 86 60 182 120 96 60 177 112 180 115 3 4 12 10 20 13 8 4 27 15 42
25 133 85 234 148 243 151 5 2 28 16 50 32 81 56 506 319 515 319 6 0 10 4 10
8 0 5 12 15 28 23 15 8 29 17 32 20 3 3 28 19 55 34 28 16 53 34 57 40 5 6 8
6 8 0 0 -6 3 -6 8 0 4 6 50 38 102 70 102 65 103 65 179 110 28 17 51 33 51
38 0 4 4 7 9 7 9 0 228 134 244 149 12 12 -1465 8 -1483 -4 -24 -16 -54 -34
-70 -42 -8 -4 -47 -26 -86 -50 -39 -24 -77 -43 -83 -43 -6 0 -11 -3 -11 -7 0
-5 -26 -21 -58 -38 -31 -16 -59 -32 -62 -36 -8 -8 -110 -69 -134 -80 -12 -5
-37 -19 -57 -32 -20 -12 -117 -69 -215 -126 -99 -58 -180 -109 -182 -113 -2
-4 -8 -8 -14 -8 -6 0 -36 -15 -67 -34 -31 -19 -78 -46 -106 -62 -27 -15 -52
-30 -55 -33 -3 -4 -16 -12 -30 -18 -14 -7 -43 -24 -65 -37 -22 -14 -62 -38
-90 -54 -84 -47 -100 -57 -105 -62 -3 -3 -23 -14 -45 -25 -22 -11 -42 -22 -45
-25 -4 -5 -372 -221 -480 -283 -19 -10 -47 -28 -61 -38 -14 -10 -29 -16 -33
-12 -3 3 -6 2 -6 -4 0 -6 -8 -13 -17 -17 -10 -3 -34 -16 -54 -28 -20 -13 -94
-56 -165 -97 -71 -41 -131 -77 -134 -80 -3 -3 -23 -16 -45 -28 -60 -34 -251
-145 -293 -171 -20 -12 -56 -32 -79 -44 -24 -12 -43 -26 -43 -30 0 -4 -6 -8
-13 -8 -7 0 -29 -11 -49 -25 -20 -14 -39 -25 -41 -25 -2 0 -3 361 -3 803 1
838 0 860 -42 947 -76 155 -262 335 -402 390 -19 7 -40 17 -46 22 -7 5 -20 10
-31 12 -10 2 -38 9 -63 16 -25 7 -54 14 -65 16 -24 6 -212 13 -217 9z"/>
<path d="M11376 18162 c-2 -1 -30 -5 -62 -8 -78 -6 -102 -10 -149 -20 -22 -4
-42 -8 -45 -9 -26 -5 -158 -50 -167 -58 -7 -5 -13 -7 -13 -4 0 8 -164 -75
-168 -85 -2 -4 -9 -8 -15 -8 -10 0 -111 -64 -127 -80 -3 -3 -27 -23 -55 -45
-27 -21 -81 -69 -119 -105 -92 -88 -87 -83 -121 -124 -16 -20 -39 -47 -50 -59
-12 -12 -41 -49 -65 -82 -25 -33 -53 -69 -62 -79 -10 -11 -18 -25 -18 -32 0
-7 -4 -14 -8 -16 -5 -1 -37 -48 -72 -103 -36 -55 -68 -101 -72 -103 -5 -2 -8
-8 -8 -13 0 -5 -38 -66 -85 -137 -47 -70 -89 -134 -95 -142 -5 -8 -97 -148
-204 -310 -107 -162 -199 -300 -205 -307 -6 -7 -11 -17 -11 -23 0 -5 -4 -10
-10 -10 -5 0 -10 -4 -10 -9 0 -5 -61 -100 -135 -211 -74 -112 -135 -207 -135
-211 0 -5 -5 -9 -12 -9 -6 0 -9 -3 -6 -6 4 -3 0 -13 -9 -22 -8 -9 -93 -136
-188 -282 -96 -146 -178 -270 -183 -275 -5 -6 -17 -24 -27 -40 -42 -69 -70
-110 -77 -113 -5 -2 -8 -8 -8 -12 0 -5 -62 -103 -138 -217 -185 -277 -216
-325 -224 -345 -4 -10 -12 -18 -18 -18 -5 0 -10 -5 -10 -11 0 -6 -11 -25 -25
-43 -14 -18 -25 -38 -25 -44 0 -7 -4 -12 -10 -12 -5 0 -10 -7 -10 -15 0 -8 -4
-15 -9 -15 -5 0 -14 -13 -21 -30 -7 -16 -16 -30 -21 -30 -4 0 -11 -10 -15 -22
-3 -12 -17 -33 -30 -47 -13 -14 -24 -29 -24 -32 0 -5 -89 -143 -127 -197 -10
-13 -45 -67 -80 -120 -72 -112 -82 -126 -105 -157 -10 -13 -18 -25 -18 -28 0
-3 -38 -62 -85 -131 -47 -70 -85 -131 -85 -135 0 -5 -4 -11 -8 -13 -4 -1 -27
-32 -50 -68 -23 -36 -46 -72 -52 -80 -70 -101 -101 -148 -106 -162 -4 -10 -10
-18 -15 -18 -5 0 -9 -7 -9 -15 0 -8 -4 -15 -10 -15 -5 0 -10 -7 -10 -15 0 -8
-4 -15 -10 -15 -5 0 -10 -4 -10 -9 0 -5 -18 -36 -40 -69 -22 -33 -40 -61 -40
-63 0 -9 1594 -3 1597 6 3 9 43 73 246 385 41 63 102 158 136 210 33 52 64
100 69 105 4 6 19 28 32 50 13 22 28 42 32 43 4 2 8 8 8 13 0 8 168 270 190
296 5 7 10 17 10 22 0 6 8 15 18 20 9 6 13 11 9 11 -9 0 31 60 48 72 5 4 6 8
2 8 -5 0 2 13 15 30 12 16 66 97 118 179 l95 150 210 2 c116 1 214 1 218 0 5
-1 255 -1 555 0 301 0 554 1 562 0 8 0 116 0 240 1 124 0 236 0 250 -1 14 -1
319 -2 679 -4 642 -2 654 -2 665 -22 6 -11 13 -22 16 -25 9 -9 70 -100 70
-105 0 -8 84 -130 92 -133 4 -2 8 -8 8 -13 0 -6 18 -37 40 -69 22 -32 40 -64
40 -69 0 -6 3 -11 8 -11 4 0 23 -26 42 -57 19 -32 38 -62 42 -68 5 -5 40 -59
79 -120 143 -221 248 -380 258 -392 6 -7 11 -15 11 -17 0 -3 41 -67 90 -142
50 -75 90 -140 90 -145 0 -5 4 -9 8 -9 5 0 14 -10 20 -22 20 -37 55 -94 88
-140 l30 -43 790 1 c544 0 788 3 787 11 -2 8 -117 186 -223 343 -104 155 -140
211 -140 219 0 5 -4 11 -8 13 -11 4 -92 126 -92 138 0 5 -3 10 -8 12 -4 2 -22
26 -39 53 -18 28 -42 64 -53 80 -12 17 -85 127 -163 245 -77 118 -217 329
-309 469 -92 139 -168 257 -168 262 0 5 -4 9 -8 9 -5 0 -15 12 -23 28 -8 15
-16 29 -19 32 -3 3 -26 37 -50 75 -25 39 -50 76 -57 83 -7 7 -13 18 -13 23 0
5 -9 19 -20 31 -11 12 -20 27 -20 34 0 6 -7 14 -15 18 -8 3 -15 11 -15 18 0 7
-11 26 -25 41 -14 15 -23 27 -19 27 3 0 -5 15 -20 34 -14 19 -26 39 -26 45 0
6 -4 11 -8 11 -5 0 -17 16 -28 35 -10 19 -22 35 -26 35 -5 0 -8 5 -8 10 0 10
-137 220 -150 230 -3 3 -9 12 -12 20 -3 8 -71 113 -152 233 -80 120 -146 223
-146 228 0 5 -4 9 -9 9 -5 0 -15 12 -22 28 -17 32 -89 142 -106 160 -6 6 -15
21 -18 32 -3 11 -11 20 -16 20 -5 0 -9 4 -9 9 0 9 -377 583 -399 608 -6 7 -11
17 -11 22 0 5 -6 16 -13 23 -22 22 -77 106 -77 117 0 6 -3 11 -7 11 -5 0 -21
23 -38 51 -16 28 -34 56 -40 63 -18 21 -55 75 -55 80 0 6 -141 219 -150 226
-3 3 -21 26 -40 53 -18 26 -37 47 -41 47 -4 0 -9 7 -11 15 -4 21 -171 200
-246 265 -35 30 -72 63 -83 73 -10 10 -19 15 -19 12 0 -3 -11 6 -25 20 -14 14
-32 25 -39 25 -8 0 -19 7 -27 16 -7 8 -29 24 -48 35 -111 61 -141 76 -141 73
0 -3 -17 4 -37 14 -38 19 -156 57 -203 66 -65 12 -88 16 -120 21 -37 6 -260
12 -264 7z m188 -1526 c150 -21 295 -158 429 -406 24 -44 42 -75 47 -80 6 -5
135 -219 158 -260 7 -14 26 -45 42 -70 17 -25 35 -56 42 -70 7 -14 15 -27 18
-30 7 -7 28 -41 40 -65 5 -11 41 -71 80 -134 38 -63 70 -118 70 -123 0 -4 5
-8 10 -8 6 0 10 -5 10 -10 0 -6 23 -46 50 -90 28 -44 50 -84 50 -89 0 -6 -435
-10 -1160 -10 -1008 0 -1160 2 -1160 14 0 8 3 15 8 15 4 0 16 17 27 38 11 20
22 39 25 42 6 6 17 24 62 100 17 30 35 57 40 58 4 2 8 8 8 14 0 5 14 29 30 53
17 24 30 48 30 54 0 6 5 11 10 11 6 0 10 7 10 15 0 8 3 15 8 15 4 0 16 18 26
40 11 22 23 40 28 40 4 0 8 4 8 9 0 6 27 53 60 106 33 53 60 100 60 106 0 5 4
9 9 9 5 0 14 14 21 30 7 17 16 30 21 30 5 0 9 6 9 14 0 8 6 21 13 28 7 7 16
20 20 28 4 8 13 24 19 35 7 10 34 52 60 92 26 40 45 73 42 73 -3 0 1 6 8 14 8
7 32 44 53 82 51 89 175 214 241 243 100 46 185 55 318 37z"/>
<path d="M25859 18125 c-3 -2 -43 -7 -89 -11 -88 -6 -135 -11 -135 -14 0 -1
-10 -3 -23 -6 -57 -10 -187 -69 -244 -111 -67 -48 -158 -141 -180 -183 -7 -14
-15 -27 -18 -30 -19 -18 -91 -196 -89 -220 0 -3 -4 -17 -10 -31 -9 -24 -16
-60 -27 -139 -2 -14 -6 -70 -10 -125 -3 -55 -8 -103 -11 -107 -2 -5 -1 -8 4
-8 7 0 7 -150 0 -212 -2 -16 -1 -28 2 -28 6 0 4 -160 -2 -212 -2 -16 -1 -28 2
-28 6 0 4 -203 -2 -282 -1 -21 0 -38 3 -38 5 0 3 -162 -3 -212 -2 -16 -1 -28
2 -28 6 0 4 -160 -2 -212 -2 -16 -1 -28 2 -28 6 0 4 -160 -2 -212 -2 -16 -1
-28 2 -28 6 0 4 -160 -2 -212 -2 -16 -1 -28 2 -28 7 0 4 -902 -2 -937 -2 -13
-1 -23 2 -23 6 0 4 -158 -2 -212 -2 -16 -1 -28 2 -28 6 0 4 -160 -2 -212 -2
-16 -1 -28 2 -28 6 0 4 -160 -2 -212 -2 -16 -1 -28 2 -28 6 0 4 -160 -2 -212
-2 -16 -1 -28 2 -28 3 0 5 -144 3 -320 -1 -176 1 -321 5 -321 5 -1 339 -2 743
-3 l735 -1 0 1675 c0 1655 1 1675 20 1698 29 35 76 53 135 52 25 0 73 -6 78
-10 1 -2 5 -3 10 -5 55 -15 57 -18 482 -436 212 -208 507 -499 657 -646 150
-147 442 -434 649 -638 207 -203 382 -376 388 -383 6 -7 17 -18 24 -25 27 -26
428 -420 794 -779 210 -208 401 -394 424 -415 34 -32 195 -123 216 -123 4 0
19 -5 35 -12 32 -13 28 -12 73 -23 36 -8 47 -10 115 -22 68 -11 237 -8 300 6
33 7 67 14 75 15 8 2 24 6 35 10 11 5 34 12 50 18 41 14 96 37 118 49 10 6 35
19 56 30 21 10 47 28 59 39 12 11 25 20 31 20 15 0 174 160 218 220 40 53 59
85 109 178 32 60 90 234 103 310 6 34 14 74 18 89 4 16 9 1014 10 2220 l3
2192 -45 -3 c-25 -1 -45 1 -45 6 0 5 -8 5 -17 1 -10 -5 -31 -7 -48 -5 -38 3
-47 3 -117 0 -32 -2 -58 0 -58 3 0 4 -16 3 -35 -1 -20 -4 -38 -4 -41 1 -3 5
-10 7 -15 3 -15 -9 -69 -11 -69 -3 0 4 -16 3 -34 -1 -19 -4 -38 -5 -41 -2 -7
8 -45 10 -45 3 0 -9 -124 -6 -138 3 -7 4 -12 3 -12 -1 0 -5 -15 -7 -32 -5 -38
4 -43 4 -120 0 -32 -2 -58 0 -58 3 0 4 -16 3 -35 -1 -19 -4 -37 -5 -39 -1 -4
6 -52 6 -66 1 -3 -1 -8 -2 -12 -1 -10 1 -9 210 -10 -2028 0 -1830 -1 -1906
-19 -1947 -39 -91 -97 -142 -142 -124 -12 4 -45 32 -73 62 -29 29 -505 503
-1059 1053 -1150 1142 -2635 2623 -2651 2645 -32 44 -191 160 -218 160 -9 0
-16 3 -16 8 0 10 -128 69 -211 96 -44 14 -159 45 -189 51 -44 8 -101 16 -153
20 -32 2 -61 7 -66 9 -5 3 -10 4 -12 1z"/>
<path d="M18830 17232 c-41 -20 -76 -40 -78 -44 -2 -5 -8 -8 -14 -8 -6 0 -29
-13 -52 -28 -22 -15 -49 -31 -58 -35 -10 -3 -18 -11 -18 -17 0 -5 -6 -10 -13
-10 -42 0 -355 -293 -437 -410 -14 -19 -27 -37 -30 -40 -3 -3 -17 -21 -30 -40
-13 -19 -29 -38 -35 -42 -5 -4 -6 -8 -2 -8 4 0 -3 -15 -17 -33 -15 -19 -26
-39 -26 -45 0 -6 -4 -12 -9 -14 -7 -3 -121 -230 -121 -242 0 -3 -5 -17 -12
-33 -6 -15 -12 -30 -13 -33 -1 -3 -14 -45 -29 -93 -15 -48 -30 -100 -32 -115
-3 -15 -9 -43 -14 -62 -10 -40 -19 -95 -26 -159 -2 -24 -7 -47 -10 -52 -3 -5
0 -9 7 -9 8 0 8 -4 2 -12 -8 -11 -12 -303 -4 -303 1 0 4 -25 6 -56 3 -30 9
-77 15 -105 6 -27 12 -60 14 -74 4 -22 19 -75 58 -210 12 -44 36 -98 111 -260
47 -100 166 -274 272 -398 49 -56 233 -232 244 -232 3 0 20 -12 36 -28 72 -66
384 -248 472 -275 10 -3 57 -19 105 -36 48 -17 95 -33 105 -35 10 -1 25 -6 33
-9 8 -4 29 -8 45 -11 17 -2 30 -5 30 -6 0 -8 213 -40 300 -45 33 -2 62 -4 65
-5 10 -3 176 0 240 4 89 7 142 15 222 31 37 8 82 17 99 20 18 3 40 10 50 16
11 5 19 8 19 5 0 -9 207 67 290 107 47 22 87 41 90 41 13 3 125 71 128 78 2 4
8 8 14 8 14 0 158 101 158 111 0 5 6 9 13 9 7 0 20 8 29 18 8 9 26 25 39 34
63 48 202 193 276 288 59 76 175 250 166 250 -3 0 0 7 8 16 24 29 97 192 134
297 34 100 40 119 51 177 3 14 7 32 10 42 24 81 38 234 38 408 -1 144 -5 201
-20 290 -12 71 -15 86 -26 125 -5 22 -12 47 -14 55 -17 72 -22 89 -28 99 -4 6
-9 19 -11 28 -5 22 -36 104 -61 158 -10 22 -17 43 -16 48 1 4 -3 7 -10 7 -6 0
-9 3 -5 6 3 3 -5 24 -19 45 -13 21 -24 42 -24 46 0 4 -11 23 -23 42 -13 20
-43 67 -67 105 -24 38 -49 74 -55 80 -5 6 -30 36 -55 66 -24 30 -48 57 -52 58
-5 2 -8 10 -8 18 0 9 -4 12 -10 9 -5 -3 -10 -2 -10 3 0 9 -61 71 -143 146
-116 107 -355 265 -460 305 -24 9 -26 8 -23 -11 1 -13 0 -37 -4 -55 -5 -18 -5
-31 -1 -29 4 3 5 -30 3 -72 -2 -42 -3 -84 -3 -92 2 -32 3 -106 2 -135 -1 -16
-1 -52 0 -80 1 -27 1 -63 0 -80 0 -16 0 -60 0 -97 2 -94 -11 -221 -28 -273 -4
-11 -8 -24 -9 -30 -7 -29 -30 -81 -39 -87 -5 -4 -7 -8 -3 -8 4 0 -10 -29 -30
-64 -250 -427 -791 -557 -1203 -289 -94 61 -239 208 -239 242 0 6 -4 11 -8 11
-20 0 -92 181 -118 295 -4 17 -8 216 -10 443 -1 228 -4 415 -6 417 -2 2 -37
-13 -78 -33z"/>
</g>
</svg>
