<?xml version="1.0" encoding="utf-8"?>
<!-- Generated by IcoMoon.io -->
<!DOCTYPE svg PUBLIC "-//W3C//DTD SVG 1.1//EN" "http://www.w3.org/Graphics/SVG/1.1/DTD/svg11.dtd">
<svg version="1.1" xmlns="http://www.w3.org/2000/svg" xmlns:xlink="http://www.w3.org/1999/xlink" width="37" height="32" viewBox="0 0 37 32">
<path fill="#444" d="M33.92 19.2h-30.72c-1.768 0-3.2-1.432-3.2-3.2s1.432-3.2 3.2-3.2h30.72c1.768 0 3.2 1.432 3.2 3.2s-1.432 3.2-3.2 3.2zM33.92 6.4h-30.72c-1.768 0-3.2-1.432-3.2-3.2s1.432-3.2 3.2-3.2h30.72c1.768 0 3.2 1.432 3.2 3.2s-1.432 3.2-3.2 3.2zM3.2 25.6h30.72c1.768 0 3.2 1.432 3.2 3.2s-1.432 3.2-3.2 3.2h-30.72c-1.768 0-3.2-1.432-3.2-3.2s1.432-3.2 3.2-3.2z"></path>
</svg>
