<?xml version="1.0" encoding="utf-8"?>
<!-- Generated by IcoMoon.io -->
<!DOCTYPE svg PUBLIC "-//W3C//DTD SVG 1.1//EN" "http://www.w3.org/Graphics/SVG/1.1/DTD/svg11.dtd">
<svg version="1.1" xmlns="http://www.w3.org/2000/svg" xmlns:xlink="http://www.w3.org/1999/xlink" width="39" height="32" viewBox="0 0 39 32">
<path fill="#444" d="M34.311 13.511c-3.911-4.089-9.067-6.222-14.578-6.222-2.844 0-5.511 0.533-8 1.6s-4.622 2.667-6.578 4.622l-4.978-5.156c2.489-2.667 5.511-4.622 8.889-6.222 3.378-1.422 7.111-2.311 10.844-2.311s7.289 0.711 10.667 2.311c3.2 1.422 6.222 3.556 8.711 6.044l-4.978 5.333z"></path>
<path fill="#444" d="M13.156 13.156c2.133-0.889 4.267-1.422 6.578-1.422 2.133 0 4.444 0.533 6.4 1.422s3.733 2.133 5.156 3.556l-4.978 5.156c-1.778-1.778-4.089-2.844-6.756-2.844s-4.978 1.067-6.756 3.022l-4.978-4.978c1.6-1.778 3.378-3.022 5.333-3.911z"></path>
<path fill="#444" d="M23.644 27.733c0 2.356-1.831 4.267-4.089 4.267s-4.089-1.91-4.089-4.267c0-2.356 1.831-4.267 4.089-4.267s4.089 1.91 4.089 4.267z"></path>
</svg>
