<svg width="64" height="64" viewBox="0 0 64 64" fill="none" xmlns="http://www.w3.org/2000/svg">
<path d="M31.5155 37.3101C33.6577 37.3101 35.3943 35.581 35.3943 33.448C35.3943 31.315 33.6577 29.5859 31.5155 29.5859C29.3733 29.5859 27.6367 31.315 27.6367 33.448C27.6367 35.581 29.3733 37.3101 31.5155 37.3101Z" stroke="#E60300" stroke-miterlimit="10" stroke-linecap="square"/>
<path d="M42.6849 51.521C46.6432 49.0989 49.6992 45.4563 51.3884 41.1468C53.0776 36.8374 53.3076 32.0967 52.0436 27.6451C50.7796 23.1936 48.0907 19.2746 44.3854 16.4837C40.6801 13.6928 36.161 12.1826 31.515 12.1826C26.8689 12.1826 22.3499 13.6928 18.6446 16.4837C14.9393 19.2746 12.2503 23.1936 10.9863 27.6451C9.72232 32.0967 9.9524 36.8374 11.6416 41.1468C13.3308 45.4563 16.3867 49.0989 20.345 51.521" stroke="#D5D5D5" stroke-miterlimit="10" stroke-linecap="square"/>
<path d="M47.7395 60C53.3171 56.552 57.6232 51.3666 60.0035 45.2319C62.3837 39.0972 62.7079 32.3486 60.9268 26.0116C59.1457 19.6746 55.3567 14.0957 50.1356 10.1228C44.9145 6.14983 38.5468 4 32.0001 4C25.4533 4 19.0856 6.14983 13.8645 10.1228C8.64339 14.0957 4.85439 19.6746 3.07331 26.0116C1.29223 32.3486 1.61644 39.0972 3.99666 45.2319C6.37689 51.3666 10.683 56.552 16.2606 60" stroke="#D5D5D5" stroke-miterlimit="10" stroke-linecap="square"/>
<path d="M24.7272 44.0263C22.4269 42.5627 20.6659 40.3951 19.709 37.8495C18.7521 35.3038 18.651 32.5177 19.4209 29.9099C20.1907 27.3021 21.7899 25.0137 23.9781 23.3885C26.1663 21.7634 28.8252 20.8894 31.5551 20.898C34.2849 20.9066 36.9382 21.7973 39.116 23.4361C41.2939 25.075 42.8785 27.3735 43.6318 29.9861C44.3851 32.5986 44.2663 35.3841 43.2933 37.9236C42.3203 40.4632 40.5456 42.6196 38.236 44.0688" stroke="#D5D5D5" stroke-miterlimit="10" stroke-linecap="square"/>
</svg>
