<svg xmlns="http://www.w3.org/2000/svg" viewBox="0 0 60 68.74"><defs><style>.cls-1{fill:#28b4b4;}</style></defs><title>sentinel-sign</title><g id="Layer_2" data-name="Layer 2"><g id="Layer_1-2" data-name="Layer 1"><path class="cls-1" d="M50.45,6.76,50,12.63,38.41,8.55v-6L30,0,21.59,2.56v6L10,12.63,9.55,6.76,0,10.58C2,52.14,30,68.74,30,68.74s28-16.6,30-58.16Zm-21,51.49a3.4,3.4,0,1,1,3.89-3.89A3.41,3.41,0,0,1,29.46,58.26Zm8.67-12.31,0,0a2.66,2.66,0,0,1-3.42.65,9.52,9.52,0,0,0-9.36,0A2.66,2.66,0,0,1,21.9,46l0,0A2.65,2.65,0,0,1,22.61,42a14.9,14.9,0,0,1,14.78,0A2.65,2.65,0,0,1,38.13,45.95Zm6.15-10.13,0,.05A2.67,2.67,0,0,1,40.46,37a20.74,20.74,0,0,0-20.91,0,2.67,2.67,0,0,1-3.8-1.15l0-.05a2.63,2.63,0,0,1,1-3.35,26.09,26.09,0,0,1,26.54,0A2.63,2.63,0,0,1,44.28,35.81ZM48.05,24.2v.06a2.64,2.64,0,0,1-3.78,1.83A32.15,32.15,0,0,0,30,22.56a32.15,32.15,0,0,0-14.26,3.53A2.64,2.64,0,0,1,12,24.26V24.2a2.66,2.66,0,0,1,1.42-2.91A37.48,37.48,0,0,1,30,17.21a37.48,37.48,0,0,1,16.63,4.08A2.66,2.66,0,0,1,48.05,24.2Z"/></g></g></svg>