<svg xmlns="http://www.w3.org/2000/svg" viewBox="0 0 16 16"><defs><style>.cls-1{opacity:0.5;}.cls-2{fill:#fff;}</style></defs><title>settings</title><g id="Layer_2" data-name="Layer 2"><g id="UI"><g class="cls-1"><path class="cls-2" d="M13.3,5.2l1.1-2.1L13,1.7,10.9,2.8a3.58,3.58,0,0,0-1.1-.4L9,0H7L6.2,2.3a4.18,4.18,0,0,0-1,.4L3.1,1.6,1.6,3.1,2.7,5.2a4.18,4.18,0,0,0-.4,1L0,7V9l2.3.8c.1.4.3.7.4,1.1L1.6,13,3,14.4l2.1-1.1a3.58,3.58,0,0,0,1.1.4L7,16H9l.8-2.3c.4-.1.7-.3,1.1-.4L13,14.4,14.4,13l-1.1-2.1a3.58,3.58,0,0,0,.4-1.1L16,9V7l-2.3-.8A4.18,4.18,0,0,0,13.3,5.2ZM8,11A3,3,0,0,1,5,8,3,3,0,0,1,8,5a3,3,0,0,1,3,3A3,3,0,0,1,8,11Z"/></g></g></g></svg>