<?xml version="1.0" encoding="utf-8"?>
<!-- Generator: Adobe Illustrator 21.1.0, SVG Export Plug-In . SVG Version: 6.00 Build 0)  -->
<svg version="1.1" id="Layer_1" xmlns="http://www.w3.org/2000/svg" xmlns:xlink="http://www.w3.org/1999/xlink" x="0px" y="0px"
	 width="100px" height="125px" viewBox="0 0 100 125" style="enable-background:new 0 0 100 125;" xml:space="preserve">
<style type="text/css">
	.st0{opacity:0.2;fill:#DADADA;}
	.st1{opacity:0.6;fill:none;stroke:#DADADA;stroke-miterlimit:10;}
	.st2{fill:none;stroke:#DADADA;stroke-miterlimit:10;}
</style>
<path class="st0" d="M49.2,5.6c0,0,6.5,6.5,18.9,11.1c13.8,5.1,22.8,4.7,22.8,4.7l-0.6,50.1c-2.6,21.9-17.5,37.2-34.6,40.2l-0.1,0
	c0,0-4.3,0.5-6.3,4.5C49.2,111.2,49.2,5.6,49.2,5.6z"/>
<path class="st1" d="M46.8,117.6c-1.3-2-3.1-2.7-3.7-2.9l-0.4-0.1C23.2,111.2,8.4,94,5.7,71.9l0-0.2L5,18.3l3.2,0.1c0,0,0.3,0,0.3,0
	c1.5,0,9.5-0.2,21.2-4.5C41.2,9.6,47.3,3.6,47.4,3.5l2.1-2.2l2.1,2.2c0.1,0.1,6.1,6.1,17.7,10.4C81,18.2,89,18.4,90.5,18.4
	c0.2,0,0.3,0,0.3,0l3.1-0.1l0,3.2l-0.7,50.2l0,0.2c-2.6,22.1-17.5,39.3-37,42.8l-0.4,0.1c-0.7,0.2-2.4,0.9-3.7,2.9
	c-0.6,0.9-2.7,3.3-2.7,3.3S47.4,118.5,46.8,117.6z"/>
<path class="st2" d="M49.5,5.6c0,0,6.4,6.5,18.8,11.1C82.1,21.8,91,21.4,91,21.4l-0.7,50.1c-2.6,21.9-17.5,37.2-34.6,40.2l0,0
	c0,0-4.2,0.5-6.2,4.5c-2-4-6.2-4.5-6.2-4.5l0,0c-17-3-32-18.3-34.6-40.2L8,21.4c0,0,8.9,0.4,22.7-4.7C43.1,12.1,49.5,5.6,49.5,5.6z"
	/>
<line class="st2" x1="16.8" y1="93.9" x2="90.9" y2="26.3"/>
<line class="st2" x1="14.7" y1="90.4" x2="90.3" y2="21.4"/>
</svg>
