<svg width="32" height="32" viewBox="0 0 32 32" fill="none" xmlns="http://www.w3.org/2000/svg">
<path d="M11.615 20.7576C12.7959 19.6297 14.366 19.0002 15.9991 19.0002C17.6321 19.0002 19.2022 19.6297 20.3831 20.7576" stroke="#E9AD39" stroke-linecap="round" stroke-linejoin="round"/>
<path d="M7.37231 16.515C9.67852 14.2617 12.7748 13.0002 15.999 13.0002C19.2232 13.0002 22.3195 14.2617 24.6257 16.515" stroke="#D5D5D5" stroke-linecap="round" stroke-linejoin="round"/>
<path d="M3.13306 12.2723C6.56323 8.89392 11.1846 7.00024 15.9991 7.00024C20.8136 7.00024 25.435 8.89392 28.8652 12.2723" stroke="#D5D5D5" stroke-linecap="round" stroke-linejoin="round"/>
<path d="M16 27C17.1046 27 18 26.1046 18 25C18 23.8954 17.1046 23 16 23C14.8954 23 14 23.8954 14 25C14 26.1046 14.8954 27 16 27Z" fill="#E9AD39"/>
</svg>
