<svg width="24" height="24" viewBox="0 0 24 24" fill="none" xmlns="http://www.w3.org/2000/svg">
<path d="M12.25 14.25C13.3546 14.25 14.25 13.3546 14.25 12.25C14.25 11.1454 13.3546 10.25 12.25 10.25C11.1454 10.25 10.25 11.1454 10.25 12.25C10.25 13.3546 11.1454 14.25 12.25 14.25Z" stroke="#505655" stroke-width="0.5" stroke-miterlimit="10" stroke-linecap="square"/>
<path d="M18.0095 21.609C20.0505 20.3546 21.6262 18.4683 22.4972 16.2366C23.3682 14.005 23.4868 11.5499 22.8351 9.24468C22.1833 6.93941 20.7969 4.90993 18.8863 3.46465C16.9758 2.01937 14.6456 1.2373 12.25 1.2373C9.85438 1.2373 7.52424 2.01937 5.6137 3.46465C3.70315 4.90993 2.31666 6.93941 1.66491 9.24468C1.01316 11.5499 1.1318 14.005 2.00279 16.2366C2.87378 18.4683 4.4495 20.3546 6.4905 21.609" stroke="#505655" stroke-width="0.5" stroke-miterlimit="10" stroke-linecap="square"/>
<path d="M8.74992 17.7281C7.56383 16.9702 6.65583 15.8477 6.16242 14.5294C5.66902 13.2112 5.61687 11.7683 6.01383 10.4179C6.41079 9.06744 7.2354 7.88233 8.36368 7.04074C9.49196 6.19916 10.863 5.74656 12.2705 5.75101C13.6781 5.75545 15.0462 6.2167 16.1692 7.0654C17.2921 7.9141 18.1092 9.10439 18.4976 10.4573C18.886 11.8103 18.8248 13.2527 18.3231 14.5678C17.8213 15.883 16.9063 16.9997 15.7154 17.7501" stroke="#505655" stroke-width="0.5" stroke-miterlimit="10" stroke-linecap="square"/>
</svg>
