<?xml version="1.0" encoding="utf-8"?>
<!-- Generator: Adobe Illustrator 21.1.0, SVG Export Plug-In . SVG Version: 6.00 Build 0)  -->
<svg version="1.1" id="Layer_1" xmlns="http://www.w3.org/2000/svg" xmlns:xlink="http://www.w3.org/1999/xlink" x="0px" y="0px"
	 width="60px" height="30px" viewBox="0 0 60 30" style="enable-background:new 0 0 60 30;" xml:space="preserve">
<style type="text/css">
	.st0{fill:none;stroke:#E0483C;stroke-miterlimit:10;}
</style>
<path class="st0" d="M34.6,27.7c-1.4,0.5-3,0.8-4.6,0.8c-7.5,0-13.5-6-13.5-13.5S22.5,1.5,30,1.5c5.2,0,9.7,3,12,7.3"/>
<g>
	<line class="st0" x1="34.9" y1="24.5" x2="44.4" y2="15"/>
	<line class="st0" x1="34.9" y1="15" x2="44.4" y2="24.5"/>
</g>
<path class="st0" d="M32.5,22.8c-0.8,0.2-1.6,0.4-2.5,0.4c-4.5,0-8.2-3.7-8.2-8.2s3.7-8.2,8.2-8.2c3.6,0,6.7,2.3,7.8,5.6"/>
</svg>
