<!-- Generated by IcoMoon.io -->
<svg version="1.1" xmlns="http://www.w3.org/2000/svg" width="32" height="32" viewBox="0 0 32 32">
<title>dashboard-lan</title>
<path style="opacity: 0.35;" d="M16 32c-8.837 0-16-7.163-16-16s7.163-16 16-16c8.837 0 16 7.163 16 16-0.011 8.832-7.168 15.989-15.999 16zM16 0.376c-8.629 0-15.624 6.995-15.624 15.624s6.995 15.624 15.624 15.624c8.629 0 15.624-6.995 15.624-15.624-0.011-8.624-6.999-15.613-15.623-15.624zM12.424 17.694h-4.894v-6.4h4.894zM7.906 17.318h4.141v-5.647h-4.141zM24.471 17.694h-4.894v-6.4h4.894zM19.953 17.318h4.141v-5.647h-4.141zM22.212 22.965h-12.424v-3.012h0.376v2.635h11.671v-2.635h0.376v3.012zM11.671 11.671h-0.376v-2.259h-2.635v2.259h-0.376v-2.635h3.388v2.635zM23.718 11.671h-0.376v-2.259h-2.635v2.259h-0.376v-2.635h3.388v2.635z"></path>
</svg>
