<?xml version="1.0" encoding="UTF-8"?>
<!DOCTYPE svg PUBLIC "-//W3C//DTD SVG 1.1//EN" "http://www.w3.org/Graphics/SVG/1.1/DTD/svg11.dtd">
<!-- Creator: CorelDRAW 2017 -->
<svg xmlns="http://www.w3.org/2000/svg" xml:space="preserve" width="210.371mm" height="57.3488mm" version="1.1" style="shape-rendering:geometricPrecision; text-rendering:geometricPrecision; image-rendering:optimizeQuality; fill-rule:evenodd; clip-rule:evenodd"
viewBox="0 0 13488.67 3677.12"
 xmlns:xlink="http://www.w3.org/1999/xlink">
 <defs>
  <style type="text/css">
   <![CDATA[
    .fil0 {fill:black;fill-rule:nonzero}
    .fil1 {fill:#F5821F;fill-rule:nonzero}
   ]]>
  </style>
 </defs>
 <g id="Layer_x0020_1">
  <metadata id="CorelCorpID_0Corel-Layer"/>
  <g id="_2628469202768">
   <path class="fil0" d="M13008.82 895.49l0 1650.17c0,41.61 -44.95,116.39 -79.52,81.84l-1574.27 -1564.3c-104.75,-165.59 -733.95,-359.75 -737.66,233.66l0 1848.04 629.39 0 0 -1399.76c-4.07,-62.6 91.16,-70.54 142.3,-24.52l1418.55 1395.69c273.71,182.35 674.01,8.84 681.06,-433.81l0 -1787.01 -479.85 0z"/>
   <path class="fil0" d="M2620.36 1019.12l-626.04 0 -1322.96 775.75 0 -686.17 -10.58 -43.74c-133.31,-280.04 -515.81,-287.45 -654.77,11.46l-6 35.98 0 2032.49 671.35 0 0 -857.75 1264.07 857.75 910.84 0 -1813.21 -1127.58 1587.31 -998.2z"/>
   <path class="fil0" d="M5462.73 1293.16c-182.87,-298.92 -380.56,-422.53 -608.57,-416.71 -226.43,1.76 -423.94,121.33 -604.34,416.71l-1222.97 1851.38 675.23 0 440.87 -680.36 1425.78 0 443.16 680.36 674.89 0 -1224.03 -1851.38zm-1100.93 843.73l0 0 317.6 -511.85c69.84,-102.28 140.37,-104.22 176.88,-104.22l7.57 0c36.51,0 110.04,1.95 180.41,104.22l308.61 511.85 -991.07 0z"/>
  </g>
  <path class="fil0" d="M7529.87 2003.92c0,452.17 381.61,825.68 849.65,825.68 462.93,0 845.58,-373.51 845.58,-825.68 0,-328.79 -201.03,-617.99 -486.36,-749.2l0 306.67c0,192.93 -163.64,352.96 -359.22,352.96 -199.62,0 -357.63,-160.03 -357.63,-352.96l0 -306.67c-290.98,131.21 -492.02,420.41 -492.02,749.2z"/>
  <path class="fil1" d="M8365.95 1754.66c110.38,0 195.91,-123.27 195.91,-264.17l0 -1226.33c0,-145.84 -85.53,-264.17 -195.91,-264.17 -107.05,0 -192.05,118.33 -192.05,264.17l0 1226.33c0,140.9 85,264.17 192.05,264.17z"/>
  <path class="fil1" d="M8738.73 395.37l0 462.74c505.79,151.31 873.11,613.69 873.11,1159.21 0,665.18 -553.91,1213.28 -1226.67,1213.28 -672.96,0 -1228.61,-548.1 -1228.61,-1213.28 0,-536.17 363.62,-994.68 856.69,-1153.75l0 -462.56c-751.95,163.13 -1309.2,829.19 -1309.2,1616.31 0,916.31 753.35,1659.8 1681.12,1659.8 926.17,0 1680.94,-743.49 1680.94,-1659.8 0,-790.99 -568.89,-1462.36 -1327.38,-1621.96z"/>
 </g>
</svg>
