<?xml version="1.0" encoding="UTF-8"?>
<!DOCTYPE svg PUBLIC "-//W3C//DTD SVG 1.1//EN" "http://www.w3.org/Graphics/SVG/1.1/DTD/svg11.dtd">
<!-- Creator: CorelDRAW 2017 -->
<svg xmlns="http://www.w3.org/2000/svg" xml:space="preserve" width="210.371mm" height="57.3488mm" version="1.1" style="shape-rendering:geometricPrecision; text-rendering:geometricPrecision; image-rendering:optimizeQuality; fill-rule:evenodd; clip-rule:evenodd"
viewBox="0 0 12842.37 3500.93"
 xmlns:xlink="http://www.w3.org/1999/xlink">
 <defs>
  <style type="text/css">
   <![CDATA[
    .fil0 {fill:#E1E2E2;fill-rule:nonzero}
   ]]>
  </style>
 </defs>
 <g id="Layer_x0020_1">
  <metadata id="CorelCorpID_0Corel-Layer"/>
  <g id="_2220436668688">
   <g>
    <g>
     <path class="fil0" d="M12385.51 852.59l0 1571.1c0,39.62 -42.8,110.81 -75.71,77.92l-1498.84 -1489.35c-99.73,-157.65 -698.78,-342.51 -702.31,222.47l0 1759.49 599.24 0 0 -1332.69c-3.87,-59.6 86.8,-67.16 135.48,-23.34l1350.58 1328.82c260.59,173.62 641.72,8.41 648.43,-413.03l0 -1701.39 -456.86 0z"/>
     <path class="fil0" d="M2494.81 970.29l-596.04 0 -1259.58 738.58 0 -653.29 -10.07 -41.64c-126.92,-266.62 -491.09,-273.68 -623.4,10.92l-5.71 34.25 0 1935.11 639.19 0 0 -816.65 1203.5 816.65 867.19 0 -1726.33 -1073.55 1511.26 -950.38z"/>
     <path class="fil0" d="M5200.98 1231.2c-174.1,-284.6 -362.32,-402.28 -579.42,-396.74 -215.58,1.67 -403.63,115.51 -575.39,396.74l-1164.37 1762.68 642.87 0 419.75 -647.76 1357.46 0 421.92 647.76 642.55 0 -1165.38 -1762.68zm-1048.18 803.3l0 0 302.38 -487.32c66.49,-97.38 133.64,-99.23 168.41,-99.23l7.21 0c34.76,0 104.77,1.86 171.77,99.23l293.82 487.32 -943.59 0z"/>
    </g>
    <path class="fil0" d="M7169.07 1907.9c0,430.5 363.33,786.12 808.94,786.12 440.75,0 805.07,-355.61 805.07,-786.12 0,-313.03 -191.4,-588.38 -463.06,-713.3l0 291.97c0,183.68 -155.8,336.05 -342.01,336.05 -190.06,0 -340.49,-152.37 -340.49,-336.05l0 -291.97c-277.04,124.92 -468.45,400.27 -468.45,713.3z"/>
    <path class="fil0" d="M7965.1 1670.59c105.09,0 186.52,-117.36 186.52,-251.51l0 -1167.57c0,-138.85 -81.43,-251.51 -186.52,-251.51 -101.92,0 -182.85,112.66 -182.85,251.51l0 1167.57c0,134.15 80.93,251.51 182.85,251.51z"/>
    <path class="fil0" d="M8320.02 376.42l0 440.57c481.55,144.06 831.27,584.28 831.27,1103.67 0,633.31 -527.37,1155.15 -1167.9,1155.15 -640.71,0 -1169.75,-521.84 -1169.75,-1155.15 0,-510.48 346.19,-947.02 815.65,-1098.47l0 -440.4c-715.92,155.31 -1246.47,789.46 -1246.47,1538.87 0,872.41 717.25,1580.27 1600.57,1580.27 881.79,0 1600.4,-707.86 1600.4,-1580.27 0,-753.09 -541.63,-1392.29 -1263.78,-1544.24z"/>
   </g>
  </g>
 </g>
</svg>
