<?xml version="1.0" encoding="UTF-8" standalone="no"?>
<!-- Generator: Adobe Illustrator 21.1.0, SVG Export Plug-In . SVG Version: 6.00 Build 0)  -->

<svg
   xmlns:dc="http://purl.org/dc/elements/1.1/"
   xmlns:cc="http://creativecommons.org/ns#"
   xmlns:rdf="http://www.w3.org/1999/02/22-rdf-syntax-ns#"
   xmlns:svg="http://www.w3.org/2000/svg"
   xmlns="http://www.w3.org/2000/svg"
   xmlns:sodipodi="http://sodipodi.sourceforge.net/DTD/sodipodi-0.dtd"
   xmlns:inkscape="http://www.inkscape.org/namespaces/inkscape"
   version="1.1"
   id="Layer_1"
   x="0px"
   y="0px"
   width="50px"
   height="60px"
   viewBox="0 0 50 60"
   style="enable-background:new 0 0 50 60;"
   xml:space="preserve"
   inkscape:version="0.91 r13725"
   sodipodi:docname="circle-sentinel-warning.svg"><metadata
     id="metadata11"><rdf:RDF><cc:Work
         rdf:about=""><dc:format>image/svg+xml</dc:format><dc:type
           rdf:resource="http://purl.org/dc/dcmitype/StillImage" /></cc:Work></rdf:RDF></metadata><defs
     id="defs9" /><sodipodi:namedview
     pagecolor="#ffffff"
     bordercolor="#666666"
     borderopacity="1"
     objecttolerance="10"
     gridtolerance="10"
     guidetolerance="10"
     inkscape:pageopacity="0"
     inkscape:pageshadow="2"
     inkscape:window-width="1916"
     inkscape:window-height="1005"
     id="namedview7"
     showgrid="false"
     inkscape:zoom="3.9333333"
     inkscape:cx="25"
     inkscape:cy="30"
     inkscape:window-x="0"
     inkscape:window-y="54"
     inkscape:window-maximized="0"
     inkscape:current-layer="Layer_1" /><style
     type="text/css"
     id="style3">
	.st0{fill:#F0F0F0;stroke:#F39544;}
</style><path
     class="st0"
     d="M41.6,7.5l-0.4,4.8l-9.4-3.4V4.1L25,2l-6.9,2.1V9l-9.4,3.4L8.4,7.5l-7.8,3.1C2.2,44.4,25,57.9,25,57.9  s22.8-13.5,24.4-47.3L41.6,7.5z M24.6,49.4c-1.5-0.2-2.5-1.7-2.3-3.2s1.7-2.5,3.2-2.3c1.2,0.2,2.1,1.1,2.3,2.3  c0.2,1.5-0.8,2.9-2.3,3.2C25.1,49.5,24.9,49.5,24.6,49.4z M31.6,39.3L31.6,39.3c-0.7,0.8-1.9,1.1-2.8,0.5c-2.4-1.3-5.3-1.3-7.6,0  c-0.9,0.6-2.1,0.4-2.8-0.4l0,0c-0.8-0.9-0.6-2.3,0.3-3c0.1-0.1,0.2-0.2,0.3-0.2c3.7-2.1,8.3-2.1,12,0c1,0.6,1.3,2,0.7,3  C31.7,39.2,31.7,39.3,31.6,39.3L31.6,39.3z M36.6,31.1L36.6,31.1c-0.5,1.1-1.8,1.6-2.9,1c-0.1,0-0.1-0.1-0.2-0.1  c-5.3-3.1-11.8-3.1-17,0c-1,0.6-2.4,0.3-3-0.7c0-0.1-0.1-0.1-0.1-0.2l0,0c-0.5-1-0.1-2.2,0.8-2.7c6.7-3.9,14.9-3.9,21.6,0  C36.7,29,37.1,30.2,36.6,31.1L36.6,31.1z M39.7,21.6L39.7,21.6c-0.2,1.2-1.4,1.9-2.5,1.7c-0.2,0-0.4-0.1-0.5-0.2  c-3.6-1.8-7.6-2.8-11.6-2.9c-4,0.1-8,1.1-11.6,3c-1.1,0.5-2.4,0.1-2.9-0.9c-0.1-0.2-0.2-0.4-0.2-0.5l0,0c-0.2-0.9,0.3-1.9,1.1-2.4  c4.2-2.2,8.8-3.3,13.5-3.4c4.7,0.1,9.3,1.2,13.5,3.4C39.4,19.8,39.9,20.8,39.7,21.6L39.7,21.6z"
     id="path5"
     style="fill:none" /></svg>