<?xml version="1.0" encoding="UTF-8" standalone="no"?>
<!-- Generator: Adobe Illustrator 21.1.0, SVG Export Plug-In . SVG Version: 6.00 Build 0)  -->

<svg
   xmlns:dc="http://purl.org/dc/elements/1.1/"
   xmlns:cc="http://creativecommons.org/ns#"
   xmlns:rdf="http://www.w3.org/1999/02/22-rdf-syntax-ns#"
   xmlns:svg="http://www.w3.org/2000/svg"
   xmlns="http://www.w3.org/2000/svg"
   xmlns:sodipodi="http://sodipodi.sourceforge.net/DTD/sodipodi-0.dtd"
   xmlns:inkscape="http://www.inkscape.org/namespaces/inkscape"
   version="1.1"
   id="Layer_1"
   x="0px"
   y="0px"
   width="50px"
   height="60px"
   viewBox="0 0 50 60"
   style="enable-background:new 0 0 50 60;"
   xml:space="preserve"
   inkscape:version="0.91 r13725"
   sodipodi:docname="circle-sentinel-off.svg"><metadata
     id="metadata11"><rdf:RDF><cc:Work
         rdf:about=""><dc:format>image/svg+xml</dc:format><dc:type
           rdf:resource="http://purl.org/dc/dcmitype/StillImage" /><dc:title></dc:title></cc:Work></rdf:RDF></metadata><defs
     id="defs9" /><sodipodi:namedview
     pagecolor="#ffffff"
     bordercolor="#666666"
     borderopacity="1"
     objecttolerance="10"
     gridtolerance="10"
     guidetolerance="10"
     inkscape:pageopacity="0"
     inkscape:pageshadow="2"
     inkscape:window-width="1916"
     inkscape:window-height="987"
     id="namedview7"
     showgrid="false"
     inkscape:zoom="3.9333333"
     inkscape:cx="-35.127119"
     inkscape:cy="30"
     inkscape:window-x="0"
     inkscape:window-y="1152"
     inkscape:window-maximized="0"
     inkscape:current-layer="Layer_1" /><style
     type="text/css"
     id="style3">
	.st0{fill:#F0F0F0;stroke:#1FBB46;}
</style><path
     class="st0"
     d="M 41.6,7.5 41.2,12.3 31.8,8.9 31.8,4.1 25,2 18.1,4.1 18.1,9 8.7,12.4 8.4,7.5 0.6,10.6 C 2.2,44.4 25,57.9 25,57.9 25,57.9 36.569584,51.049589 43.803995,34.890758 46.725328,28.365649 48.939755,20.32268 49.4,10.6 Z m -17,41.9 c -1.5,-0.2 -2.5,-1.7 -2.3,-3.2 0.2,-1.5 1.7,-2.5 3.2,-2.3 1.2,0.2 2.1,1.1 2.3,2.3 0.2,1.5 -0.8,2.9 -2.3,3.2 -0.4,0.1 -0.6,0.1 -0.9,0 z m 7,-10.1 0,0 c -0.7,0.8 -1.9,1.1 -2.8,0.5 -2.4,-1.3 -5.3,-1.3 -7.6,0 -0.9,0.6 -2.1,0.4 -2.8,-0.4 l 0,0 c -0.8,-0.9 -0.6,-2.3 0.3,-3 0.1,-0.1 0.2,-0.2 0.3,-0.2 3.7,-2.1 8.3,-2.1 12,0 1,0.6 1.3,2 0.7,3 0,0 0,0.1 -0.1,0.1 z m 5,-8.2 0,0 c -0.5,1.1 -1.8,1.6 -2.9,1 -0.1,0 -0.1,-0.1 -0.2,-0.1 -5.3,-3.1 -11.8,-3.1 -17,0 -1,0.6 -2.4,0.3 -3,-0.7 0,-0.1 -0.1,-0.1 -0.1,-0.2 l 0,0 c -0.5,-1 -0.1,-2.2 0.8,-2.7 6.7,-3.9 14.9,-3.9 21.6,0 0.9,0.6 1.3,1.8 0.8,2.7 z m 3.1,-9.5 0,0 c -0.2,1.2 -1.4,1.9 -2.5,1.7 -0.2,0 -0.4,-0.1 -0.5,-0.2 -3.6,-1.8 -7.6,-2.8 -11.6,-2.9 -4,0.1 -8,1.1 -11.6,3 -1.1,0.5 -2.4,0.1 -2.9,-0.9 -0.1,-0.2 -0.2,-0.4 -0.2,-0.5 l 0,0 c -0.2,-0.9 0.3,-1.9 1.1,-2.4 4.2,-2.2 8.8,-3.3 13.5,-3.4 4.7,0.1 9.3,1.2 13.5,3.4 0.9,0.4 1.4,1.4 1.2,2.2 z"
     id="path5"
     inkscape:connector-curvature="0"
     style="fill:none;stroke:#000000;stroke-opacity:0.45637584"
     sodipodi:nodetypes="cccccccccccscccsccccccccccccccccccccccccccccccccccsccccccc" /></svg>