<svg class="circle__icon" xmlns="http://www.w3.org/2000/svg" viewBox="0 0 44.67 51.1" width="50px" height="60px"><defs><style>.cls-1{fill:#e0483c; stroke: #e0483c;}</style></defs><path class="cls-1" d="M37.21,5.44l-.33,4.27-8.42-3V2.39L22.34.52,16.22,2.39V6.74l-8.42,3L7.46,5.44.52,8.22C1.95,38.45,22.34,50.52,22.34,50.52S42.72,38.45,44.16,8.22ZM21.95,42.9a2.47,2.47,0,1,1,2.83-2.83A2.48,2.48,0,0,1,21.95,42.9Zm6.31-9,0,0a1.93,1.93,0,0,1-2.49.48,6.92,6.92,0,0,0-6.81,0A1.93,1.93,0,0,1,16.45,34l0,0A1.93,1.93,0,0,1,17,31.09a10.84,10.84,0,0,1,10.75,0A1.93,1.93,0,0,1,28.25,33.94Zm4.47-7.37,0,0a1.94,1.94,0,0,1-2.76.84,15.09,15.09,0,0,0-15.21,0A1.94,1.94,0,0,1,12,26.61l0,0a1.91,1.91,0,0,1,.73-2.44,19,19,0,0,1,19.3,0A1.91,1.91,0,0,1,32.72,26.57Zm2.75-8.45v0a1.92,1.92,0,0,1-2.75,1.33,23.38,23.38,0,0,0-10.37-2.56A23.38,23.38,0,0,0,12,19.5a1.92,1.92,0,0,1-2.75-1.33v0a1.94,1.94,0,0,1,1-2.11,27.26,27.26,0,0,1,12.1-3,27.26,27.26,0,0,1,12.1,3A1.94,1.94,0,0,1,35.47,18.13Z"/></svg>