<svg xmlns="http://www.w3.org/2000/svg" viewBox="0 0 60 30" width="60px" height="30px"><style type="text/css">.st0{fill:none;stroke:#29CF53;stroke-miterlimit:10;}.st1{fill:none;stroke:#29CF53;stroke-linecap:round;stroke-linejoin:round;stroke-miterlimit:10;}</style><g><path class="st0" d="M29.4,23.2c-0.1,0-0.3-0.1-0.3-0.3c0-0.2,0.2-0.4,0.4-0.4c0.1,0,0.3,0.1,0.3,0.3C29.8,23,29.6,23.2,29.4,23.2z"/><polyline class="st0" points="35.3,19.2 41.4,25.2 59,7.6"/><path class="st0" d="M39.1,17.4c1.5-3.3,2.6-7.3,2.8-12.2l-4-1.6L37.7,6l-4.8-1.7V1.8l-3.5-1.1l-3.5,1.1v2.5L21.1,6L21,3.6l-4,1.6c0.8,17.2,12.4,24.1,12.4,24.1s2.3-1.4,5-4.5"/><path class="st1" d="M31.4,18.7c-1.2-0.7-2.7-0.7-3.9,0"/><path class="st1" d="M33.8,14.7c-1.3-0.8-2.8-1.2-4.3-1.2c-1.5,0-3,0.4-4.3,1.2"/><path class="st1" d="M35.3,10.2c-1.8-0.9-3.8-1.5-5.9-1.5c-2.1,0-4.1,0.6-5.9,1.5"/></g></svg>