<svg xmlns="http://www.w3.org/2000/svg" viewBox="0 0 205.28 49.44"><defs><style>.cls-1{fill:#bcb0bd;}</style></defs><title>sentinel-logo-neutral</title><g id="Layer_2" data-name="Layer 2"><g id="Layer_1-2" data-name="Layer 1"><path class="cls-1" d="M36.28,4.86,36,9.08,27.63,6.15V1.84L21.58,0,15.52,1.84V6.15L7.19,9.08,6.87,4.86,0,7.61C1.42,37.5,21.58,49.44,21.58,49.44S41.73,37.5,43.15,7.61Zm-15.09,37A2.44,2.44,0,1,1,24,39.1,2.45,2.45,0,0,1,21.19,41.9ZM27.42,33l0,0a1.91,1.91,0,0,1-2.46.47,6.85,6.85,0,0,0-6.73,0,1.91,1.91,0,0,1-2.46-.47l0,0a1.91,1.91,0,0,1,.53-2.82,10.72,10.72,0,0,1,10.63,0A1.91,1.91,0,0,1,27.42,33Zm4.42-7.29,0,0a1.92,1.92,0,0,1-2.73.83,14.92,14.92,0,0,0-15,0,1.92,1.92,0,0,1-2.73-.83l0,0A1.89,1.89,0,0,1,12,23.35a18.77,18.77,0,0,1,19.08,0A1.89,1.89,0,0,1,31.84,25.76Zm2.71-8.35v0a1.9,1.9,0,0,1-2.72,1.31,23.12,23.12,0,0,0-10.25-2.54,23.12,23.12,0,0,0-10.25,2.54A1.9,1.9,0,0,1,8.6,17.44v0a1.92,1.92,0,0,1,1-2.09,27,27,0,0,1,12-2.93,27,27,0,0,1,12,2.93A1.92,1.92,0,0,1,34.56,17.4Z"/><path class="cls-1" d="M63.37,13.89A12.34,12.34,0,0,1,68.58,15L68,16.53a14.31,14.31,0,0,0-4.77-.87c-2,0-4.88.65-4.88,3.32,0,2.26,2.15,2.86,4.66,3.49,2.92.74,6.27,1.53,6.27,5.21S65.66,33,62.07,33a11.53,11.53,0,0,1-6.54-1.85l.76-1.5a11.21,11.21,0,0,0,5.83,1.58c2.29,0,5.07-.79,5.07-3.41s-2.59-3-5.26-3.65-5.67-1.61-5.67-4.93C56.26,15.41,59.89,13.89,63.37,13.89Z"/><path class="cls-1" d="M78.07,19.53a4.76,4.76,0,0,1,5.07,5.12,12.64,12.64,0,0,1-.19,2H73.73c.16,3.13,2,4.52,4.5,4.52a12.12,12.12,0,0,0,4.06-.74l.52,1.33a12.27,12.27,0,0,1-5,1.09c-3.41,0-6.1-2.13-6.1-6.4C71.74,22.63,74.14,19.53,78.07,19.53Zm-4.28,5.75h7.36c0-.33.05-.65.05-1a3,3,0,0,0-3.27-3.19C75.59,21.14,74.09,22.63,73.79,25.28Z"/><path class="cls-1" d="M87.55,19.72l.38,2.07a7.44,7.44,0,0,1,5.29-2.29c3.22,0,4.2,1.85,4.2,5v8h-2V25.2c0-2.62-.57-4-2.62-4a7.76,7.76,0,0,0-4.71,2v9.4h-2V25.2c0-1.06,0-2.45-.27-5.26Z"/><path class="cls-1" d="M104.26,16.07v3.84h4.44v1.61h-4.44V28c0,2.51.41,3.19,1.94,3.19a10.53,10.53,0,0,0,2.29-.3l.38,1.42a10.41,10.41,0,0,1-3.46.6c-2.23,0-3.08-1.17-3.08-4.47V21.52h-2.21V19.91h2.07l.49-3.84Z"/><path class="cls-1" d="M113.23,14.57a1.24,1.24,0,0,1,1.33,1.31,1.35,1.35,0,0,1-1.47,1.39A1.23,1.23,0,0,1,111.73,16,1.4,1.4,0,0,1,113.23,14.57Zm.87,5.31V32.55h-2V19.94Z"/><path class="cls-1" d="M119.91,19.72l.38,2.07a7.44,7.44,0,0,1,5.29-2.29c3.22,0,4.2,1.85,4.2,5v8h-2V25.2c0-2.62-.57-4-2.62-4a7.76,7.76,0,0,0-4.71,2v9.4h-2V25.2c0-1.06,0-2.45-.27-5.26Z"/><path class="cls-1" d="M138.93,19.53A4.76,4.76,0,0,1,144,24.65a12.64,12.64,0,0,1-.19,2H134.6c.16,3.13,2,4.52,4.5,4.52a12.12,12.12,0,0,0,4.06-.74l.52,1.33a12.27,12.27,0,0,1-5,1.09c-3.41,0-6.1-2.13-6.1-6.4C132.61,22.63,135,19.53,138.93,19.53Zm-4.28,5.75H142c0-.33.05-.65.05-1a3,3,0,0,0-3.27-3.19C136.45,21.14,135,22.63,134.66,25.28Z"/><path class="cls-1" d="M149.46,12.09V29.77c0,1,.27,1.42.9,1.42a3.08,3.08,0,0,0,1.12-.22l.44,1.5a5.94,5.94,0,0,1-2.07.41c-1.53,0-2.34-.84-2.34-2.67V12.14Z"/><path class="cls-1" d="M168.07,17.29a12,12,0,0,1,5.37,1.23L172.73,20A13,13,0,0,0,168,19c-2.15,0-4.17.54-4.17,2.37s2.1,2.34,4.28,2.81c2.7.6,5.78,1.36,5.78,4.52S171.12,33,167.64,33a12,12,0,0,1-6.27-1.66l.71-1.42a12.85,12.85,0,0,0,5.64,1.36c2.37,0,4.22-.65,4.22-2.51,0-2.13-2.48-2.43-4.88-2.94s-5.18-1.69-5.18-4.39S164.47,17.29,168.07,17.29Z"/><path class="cls-1" d="M182.63,17.38c5.07-.08,7.44,1.58,7.44,4.71,0,3.38-2.78,5.15-7.63,5.15a20.06,20.06,0,0,1-2.23-.11v5.42h-2V17.73A35.11,35.11,0,0,1,182.63,17.38Zm3.24,7.71a3,3,0,0,0,2.18-2.94c0-2.07-1.74-3.05-5.29-3.05-.93,0-1.69.05-2.56.14v6.21a20.36,20.36,0,0,0,2.21.14A10.8,10.8,0,0,0,185.87,25.09Z"/><path class="cls-1" d="M199.42,17.29a12,12,0,0,1,5.37,1.23L204.08,20a13,13,0,0,0-4.69-1c-2.15,0-4.17.54-4.17,2.37s2.1,2.34,4.28,2.81c2.7.6,5.78,1.36,5.78,4.52S202.47,33,199,33a12,12,0,0,1-6.27-1.66l.71-1.42a12.85,12.85,0,0,0,5.64,1.36c2.37,0,4.22-.65,4.22-2.51,0-2.13-2.48-2.43-4.88-2.94s-5.18-1.69-5.18-4.39S195.82,17.29,199.42,17.29Z"/></g></g></svg>