<svg xmlns="http://www.w3.org/2000/svg" viewBox="0 0 211.5 49.44"><defs><style>.cls-1{fill:#28b4b4;}</style></defs><title>sentinel-logo</title><g id="Layer_2" data-name="Layer 2"><g id="Layer_1-2" data-name="Layer 1"><path class="cls-1" d="M36.28,4.86,36,9.08,27.63,6.15V1.84L21.58,0,15.52,1.84V6.15L7.19,9.08,6.87,4.86,0,7.61C1.42,37.5,21.58,49.44,21.58,49.44S41.73,37.5,43.15,7.61Zm-15.09,37A2.44,2.44,0,1,1,24,39.1,2.45,2.45,0,0,1,21.19,41.9ZM27.42,33l0,0a1.91,1.91,0,0,1-2.46.47,6.85,6.85,0,0,0-6.73,0,1.91,1.91,0,0,1-2.46-.47l0,0a1.91,1.91,0,0,1,.53-2.82,10.72,10.72,0,0,1,10.63,0A1.91,1.91,0,0,1,27.42,33Zm4.42-7.29,0,0a1.92,1.92,0,0,1-2.73.83,14.92,14.92,0,0,0-15,0,1.92,1.92,0,0,1-2.73-.83l0,0A1.89,1.89,0,0,1,12,23.35a18.77,18.77,0,0,1,19.08,0A1.89,1.89,0,0,1,31.84,25.76Zm2.71-8.35v0a1.9,1.9,0,0,1-2.72,1.31,23.12,23.12,0,0,0-10.25-2.54,23.12,23.12,0,0,0-10.25,2.54A1.9,1.9,0,0,1,8.6,17.44v0a1.92,1.92,0,0,1,1-2.09,27,27,0,0,1,12-2.93,27,27,0,0,1,12,2.93A1.92,1.92,0,0,1,34.56,17.4Z"/><path class="cls-1" d="M65.43,13.89a12.76,12.76,0,0,1,5.45,1.2l-.82,2a15.11,15.11,0,0,0-4.8-.84c-1.88,0-4.39.49-4.39,2.81,0,1.93,1.91,2.45,4.28,3.08,3.13.85,6.35,1.77,6.35,5.37C71.5,31.33,67.91,33,64,33a12.74,12.74,0,0,1-6.73-1.77l1-2.1A11.94,11.94,0,0,0,64,30.57c2.15,0,4.61-.65,4.61-2.86s-2.26-2.56-4.8-3.22C61.12,23.75,58,22.83,58,19.34,58,15.58,61.58,13.89,65.43,13.89Z"/><path class="cls-1" d="M80.34,19.39c3.57,0,5.37,2.29,5.37,5.31a9.31,9.31,0,0,1-.25,2.15H76.58c.22,2.59,1.77,3.65,4.06,3.65a12.82,12.82,0,0,0,4.06-.65l.68,1.85a13,13,0,0,1-5.26,1.17c-3.65,0-6.38-2.1-6.38-6.35C73.74,22.61,76.2,19.39,80.34,19.39ZM76.63,25h6.3a7.77,7.77,0,0,0,0-.79c0-1.66-.93-2.64-2.81-2.64S77,22.88,76.63,25Z"/><path class="cls-1" d="M90.45,19.5l.44,2A6.94,6.94,0,0,1,96,19.34c3.24,0,4.41,1.83,4.41,5v8.2H97.65V25.36c0-2.43-.49-3.71-2.26-3.71a7,7,0,0,0-4.22,1.72v9.18H88.41V25.39c0-1.12-.05-2.48-.27-5.59Z"/><path class="cls-1" d="M107.9,15.9v3.84h4.44V22H107.9v5.48c0,2.4.38,3.05,1.91,3.05a14.87,14.87,0,0,0,2.29-.27l.46,2a12.73,12.73,0,0,1-4,.65c-2.37,0-3.46-1.2-3.46-4.74V22H103V19.75h2l.65-3.84Z"/><path class="cls-1" d="M117.19,13.91a1.56,1.56,0,0,1,1.66,1.61A1.7,1.7,0,0,1,117,17.27a1.54,1.54,0,0,1-1.69-1.55A1.75,1.75,0,0,1,117.19,13.91Zm1.23,5.8V32.55h-2.75V19.77Z"/><path class="cls-1" d="M124.55,19.5l.44,2a6.94,6.94,0,0,1,5.1-2.18c3.24,0,4.41,1.83,4.41,5v8.2h-2.75V25.36c0-2.43-.49-3.71-2.26-3.71a7,7,0,0,0-4.22,1.72v9.18h-2.75V25.39c0-1.12-.05-2.48-.27-5.59Z"/><path class="cls-1" d="M143.66,19.39c3.57,0,5.37,2.29,5.37,5.31a9.31,9.31,0,0,1-.25,2.15H139.9c.22,2.59,1.77,3.65,4.06,3.65a12.82,12.82,0,0,0,4.06-.65l.68,1.85a13,13,0,0,1-5.26,1.17c-3.65,0-6.38-2.1-6.38-6.35C137.06,22.61,139.51,19.39,143.66,19.39ZM140,25h6.3a7.77,7.77,0,0,0,0-.79c0-1.66-.93-2.64-2.81-2.64S140.28,22.88,140,25Z"/><path class="cls-1" d="M154.92,12.09V29.26c0,1,.25,1.31.9,1.31a3.14,3.14,0,0,0,1.06-.19l.57,2a6.9,6.9,0,0,1-2.43.46c-1.94,0-2.86-1-2.86-3.05V12.14Z"/><path class="cls-1" d="M173.34,17.13a11.31,11.31,0,0,1,5.56,1.31l-1,2a12.33,12.33,0,0,0-4.63-.93c-2.13,0-3.76.52-3.76,2s2,1.93,4,2.37c2.83.63,5.91,1.61,5.91,4.74S176.5,33,172.82,33a12.86,12.86,0,0,1-6.49-1.69l.9-2a14.19,14.19,0,0,0,5.7,1.33c2.29,0,3.73-.63,3.73-2.07,0-1.64-2.23-2-4.55-2.53-2.53-.57-5.37-1.74-5.37-4.58S169.44,17.13,173.34,17.13Z"/><path class="cls-1" d="M188.28,17.21c5.12-.05,7.66,1.55,7.66,4.93,0,3.6-2.89,5.45-7.77,5.45-.68,0-1.36,0-2-.08v5h-2.78v-15A35.55,35.55,0,0,1,188.28,17.21Zm3,7.66a2.62,2.62,0,0,0,1.83-2.64c0-1.88-1.66-2.67-4.69-2.67-.82,0-1.55,0-2.29.08V25.2a17.53,17.53,0,0,0,2,.11A9,9,0,0,0,191.3,24.87Z"/><path class="cls-1" d="M205.4,17.13A11.31,11.31,0,0,1,211,18.44l-1,2a12.33,12.33,0,0,0-4.63-.93c-2.13,0-3.76.52-3.76,2s2,1.93,4,2.37c2.83.63,5.91,1.61,5.91,4.74S208.56,33,204.88,33a12.86,12.86,0,0,1-6.49-1.69l.9-2a14.19,14.19,0,0,0,5.7,1.33c2.29,0,3.73-.63,3.73-2.07,0-1.64-2.23-2-4.55-2.53-2.53-.57-5.37-1.74-5.37-4.58S201.5,17.13,205.4,17.13Z"/></g></g></svg>