<?xml version="1.0" encoding="UTF-8" standalone="no"?>
<!-- Creator: CorelDRAW 2017 -->

<svg
   xmlns:dc="http://purl.org/dc/elements/1.1/"
   xmlns:cc="http://creativecommons.org/ns#"
   xmlns:rdf="http://www.w3.org/1999/02/22-rdf-syntax-ns#"
   xmlns:svg="http://www.w3.org/2000/svg"
   xmlns="http://www.w3.org/2000/svg"
   xmlns:sodipodi="http://sodipodi.sourceforge.net/DTD/sodipodi-0.dtd"
   xmlns:inkscape="http://www.inkscape.org/namespaces/inkscape"
   xml:space="preserve"
   width="210.371mm"
   height="57.3488mm"
   version="1.1"
   style="shape-rendering:geometricPrecision; text-rendering:geometricPrecision; image-rendering:optimizeQuality; fill-rule:evenodd; clip-rule:evenodd"
   viewBox="0 0 13488.67 3677.12"
   id="svg3795"
   sodipodi:docname="kaon-logo-white.svg"
   inkscape:version="0.92.5 (2060ec1f9f, 2020-04-08)"><metadata
   id="metadata3799"><rdf:RDF><cc:Work
       rdf:about=""><dc:format>image/svg+xml</dc:format><dc:type
         rdf:resource="http://purl.org/dc/dcmitype/StillImage" /></cc:Work></rdf:RDF></metadata><sodipodi:namedview
   pagecolor="#ffffff"
   bordercolor="#666666"
   borderopacity="1"
   objecttolerance="10"
   gridtolerance="10"
   guidetolerance="10"
   inkscape:pageopacity="0"
   inkscape:pageshadow="2"
   inkscape:window-width="1920"
   inkscape:window-height="1016"
   id="namedview3797"
   showgrid="false"
   inkscape:zoom="2.187138"
   inkscape:cx="315.70939"
   inkscape:cy="108.37569"
   inkscape:window-x="0"
   inkscape:window-y="27"
   inkscape:window-maximized="1"
   inkscape:current-layer="svg3795" />
 <defs
   id="defs3778">
  <style
   type="text/css"
   id="style3776">
   <![CDATA[
    .fil0 {fill:#FEFEFE;fill-rule:nonzero}
    .fil1 {fill:#F5821F;fill-rule:nonzero}
   ]]>
  </style>
 </defs>
 <g
   id="Layer_x0020_1">
  <metadata
   id="CorelCorpID_0Corel-Layer" />
  <g
   id="_2628469160496">
   <path
   class="fil0"
   d="M13008.82 895.49l0 1650.17c0,41.61 -44.95,116.39 -79.52,81.84l-1574.27 -1564.3c-104.75,-165.59 -733.95,-359.75 -737.66,233.66l0 1848.04 629.39 0 0 -1399.76c-4.07,-62.6 91.16,-70.54 142.3,-24.52l1418.55 1395.69c273.71,182.35 674.01,8.84 681.06,-433.81l0 -1787.01 -479.85 0z"
   id="path3781" />
   <path
   class="fil0"
   d="M2620.36 1019.12l-626.04 0 -1322.96 775.75 0 -686.17 -10.58 -43.74c-133.31,-280.04 -515.81,-287.45 -654.77,11.46l-6 35.98 0 2032.49 671.35 0 0 -857.75 1264.07 857.75 910.84 0 -1813.21 -1127.58 1587.31 -998.2z"
   id="path3783" />
   <path
   class="fil0"
   d="M5462.73 1293.16c-182.87,-298.92 -380.56,-422.53 -608.57,-416.71 -226.43,1.76 -423.94,121.33 -604.34,416.71l-1222.97 1851.38 675.23 0 440.87 -680.36 1425.78 0 443.16 680.36 674.89 0 -1224.03 -1851.38zm-1100.93 843.73l0 0 317.6 -511.85c69.84,-102.28 140.37,-104.22 176.88,-104.22l7.57 0c36.51,0 110.04,1.95 180.41,104.22l308.61 511.85 -991.07 0z"
   id="path3785" />
  </g>
  <path
   class="fil0"
   d="M7529.87 2003.92c0,452.17 381.61,825.68 849.65,825.68 462.93,0 845.58,-373.51 845.58,-825.68 0,-328.79 -201.03,-617.99 -486.36,-749.2l0 306.67c0,192.93 -163.64,352.96 -359.22,352.96 -199.62,0 -357.63,-160.03 -357.63,-352.96l0 -306.67c-290.98,131.21 -492.02,420.41 -492.02,749.2z"
   id="path3788" />
  <path
   class="fil1"
   d="M8365.95 1754.66c110.38,0 195.91,-123.27 195.91,-264.17l0 -1226.33c0,-145.84 -85.53,-264.17 -195.91,-264.17 -107.05,0 -192.05,118.33 -192.05,264.17l0 1226.33c0,140.9 85,264.17 192.05,264.17z"
   id="path3790" />
  <path
   class="fil1"
   d="M8738.73 395.37l0 462.74c505.79,151.31 873.11,613.69 873.11,1159.21 0,665.18 -553.91,1213.28 -1226.67,1213.28 -672.96,0 -1228.61,-548.1 -1228.61,-1213.28 0,-536.17 363.62,-994.68 856.69,-1153.75l0 -462.56c-751.95,163.13 -1309.2,829.19 -1309.2,1616.31 0,916.31 753.35,1659.8 1681.12,1659.8 926.17,0 1680.94,-743.49 1680.94,-1659.8 0,-790.99 -568.89,-1462.36 -1327.38,-1621.96z"
   id="path3792" />
 </g>
<path
   style="fill:#0000ff;stroke-width:0.45721853"
   d="m 484.33157,216.0637 c -15.05159,-1.62957 -29.33327,-6.39503 -41.60447,-13.88242 -25.41115,-15.50487 -42.10288,-40.66808 -46.42344,-69.98451 -0.994,-6.74464 -0.99764,-19.3552 -0.008,-26.47017 4.46042,-32.05619 24.62972,-59.756562 53.97278,-74.125799 5.61183,-2.748105 16.23358,-6.611432 20.00331,-7.275576 l 1.71456,-0.302069 -0.011,13.394359 -0.011,13.39436 -4.58347,1.782873 c -28.07071,10.918923 -46.83506,39.353173 -45.56314,69.043372 1.26467,29.52098 20.92574,55.59645 49.00452,64.9922 9.04401,3.02631 12.63655,3.57876 23.33911,3.58899 8.28558,0.008 10.2596,-0.13293 14.40239,-1.02758 28.50551,-6.15586 49.95262,-27.08911 56.52028,-55.16608 1.18217,-5.05382 1.28459,-6.226 1.29827,-14.85961 0.0166,-10.50321 -0.47974,-13.96099 -3.19336,-22.244944 C 559.67528,86.193588 554.18214,77.420232 545.61639,68.854477 537.53648,60.774571 528.90568,55.224084 518.96588,51.715475 L 515.42243,50.46469 V 37.036032 c 0,-7.869429 0.17414,-13.428659 0.42066,-13.428659 1.12698,0 11.93139,3.37133 15.38175,4.799609 12.67568,5.24711 22.70408,11.799513 32.14006,20.999803 2.85589,2.784561 6.43971,6.605951 7.96404,8.491977 21.01263,25.998579 27.24342,60.133278 16.74121,91.714968 -6.74968,20.2973 -20.52077,38.08728 -39.19157,50.62908 -5.42191,3.64208 -16.53858,9.02331 -23.16873,11.21526 -12.867,4.25389 -28.52721,5.99695 -41.37828,4.60563 z"
   id="path3801"
   inkscape:connector-curvature="0"
   transform="scale(16.964686)" /><path
   style="fill:#0e16e6;stroke-width:0.45721853;fill-opacity:0"
   d="m 489.56407,102.32662 c -2.39023,-1.11867 -4.95168,-4.130104 -6.25758,-7.356878 l -1.0324,-2.550982 V 51.497703 10.576646 l 1.28211,-2.7433115 c 2.99753,-6.413795 8.25085,-9.040854 13.34888,-6.6754588 2.47483,1.1482716 4.49467,3.3830721 6.03339,6.6754588 l 1.28211,2.7433115 0.12648,39.998838 c 0.12291,38.868087 0.10066,40.083853 -0.78691,43.005996 -2.27614,7.49368 -8.44041,11.34529 -13.99608,8.74514 z"
   id="path3803"
   inkscape:connector-curvature="0"
   transform="scale(16.964686)" /><path
   style="fill:#0e16e6;fill-opacity:0;stroke-width:0.45721853"
   d="m 480.6281,215.40804 c -22.70645,-3.59512 -41.52022,-13.08174 -57.07287,-28.77835 -14.88325,-15.021 -25.00471,-36.03512 -27.25502,-56.58669 -0.61144,-5.58423 -0.62122,-16.68611 -0.0194,-22.07881 3.15416,-28.265162 19.17217,-54.161263 43.19767,-69.837097 8.48227,-5.534402 15.59231,-8.871227 25.95262,-12.179876 7.02903,-2.24478 6.31539,-3.594474 6.17399,11.676729 l -0.12132,13.102137 -4.57218,1.902177 c -6.10764,2.540978 -8.46079,3.784699 -13.29754,7.028211 -18.74004,12.567025 -30.44561,32.940033 -31.95901,55.623219 -0.51273,7.68487 0.92634,17.99255 3.64638,26.11799 1.80754,5.39961 6.24324,14.02929 9.71851,18.90745 3.90911,5.48713 11.50371,13.1023 16.81417,16.8597 4.90222,3.46856 14.33042,8.15716 20.31635,10.10324 8.1555,2.65143 10.66131,2.98537 22.42286,2.98819 10.19063,0.002 10.99755,-0.0615 15.64968,-1.24119 15.05473,-3.81741 26.46931,-10.34137 36.71339,-20.9834 9.13539,-9.49027 15.22312,-20.91114 18.49197,-34.69185 0.77885,-3.28348 0.92235,-5.45667 0.92506,-14.00896 0.004,-11.42243 -0.44917,-14.77195 -3.0497,-22.560038 -3.51958,-10.540501 -9.16678,-19.529728 -17.52301,-27.893184 -7.97213,-7.979016 -16.49362,-13.57697 -25.78349,-16.93774 l -4.38195,-1.585241 10e-4,-12.116291 c 10e-4,-12.675494 0.12964,-14.173774 1.21359,-14.173774 1.38045,0 13.82937,4.311352 18.20701,6.305512 31.57543,14.383655 53.21328,43.762284 57.14726,77.591286 2.87434,24.71701 -4.12841,49.8704 -19.37698,69.60069 -8.79637,11.38171 -20.34738,21.08961 -32.47447,27.29278 -10.2293,5.23241 -18.33569,7.9987 -29.07117,9.92049 -7.14974,1.27989 -24.30779,1.63426 -30.63365,0.63269 z"
   id="path4610"
   inkscape:connector-curvature="0"
   transform="scale(16.964686)" /><path
   style="fill:#0e16e6;fill-opacity:0;stroke-width:0.45721853"
   d="m 480.6281,215.40804 c -22.70645,-3.59512 -41.52022,-13.08174 -57.07287,-28.77835 -14.88325,-15.021 -25.00471,-36.03512 -27.25502,-56.58669 -0.61144,-5.58423 -0.62122,-16.68611 -0.0194,-22.07881 3.15416,-28.265162 19.17217,-54.161263 43.19767,-69.837097 8.48227,-5.534402 15.59231,-8.871227 25.95262,-12.179876 7.02903,-2.24478 6.31539,-3.594474 6.17399,11.676729 l -0.12132,13.102137 -4.57218,1.902177 c -6.10764,2.540978 -8.46079,3.784699 -13.29754,7.028211 -18.74004,12.567025 -30.44561,32.940033 -31.95901,55.623219 -0.51273,7.68487 0.92634,17.99255 3.64638,26.11799 1.80754,5.39961 6.24324,14.02929 9.71851,18.90745 3.90911,5.48713 11.50371,13.1023 16.81417,16.8597 4.90222,3.46856 14.33042,8.15716 20.31635,10.10324 8.1555,2.65143 10.66131,2.98537 22.42286,2.98819 10.19063,0.002 10.99755,-0.0615 15.64968,-1.24119 15.05473,-3.81741 26.46931,-10.34137 36.71339,-20.9834 9.13539,-9.49027 15.22312,-20.91114 18.49197,-34.69185 0.77885,-3.28348 0.92235,-5.45667 0.92506,-14.00896 0.004,-11.42243 -0.44917,-14.77195 -3.0497,-22.560038 -3.51958,-10.540501 -9.16678,-19.529728 -17.52301,-27.893184 -7.97213,-7.979016 -16.49362,-13.57697 -25.78349,-16.93774 l -4.38195,-1.585241 10e-4,-12.116291 c 10e-4,-12.675494 0.12964,-14.173774 1.21359,-14.173774 1.38045,0 13.82937,4.311352 18.20701,6.305512 31.57543,14.383655 53.21328,43.762284 57.14726,77.591286 2.87434,24.71701 -4.12841,49.8704 -19.37698,69.60069 -8.79637,11.38171 -20.34738,21.08961 -32.47447,27.29278 -10.2293,5.23241 -18.33569,7.9987 -29.07117,9.92049 -7.14974,1.27989 -24.30779,1.63426 -30.63365,0.63269 z"
   id="path4612"
   inkscape:connector-curvature="0"
   transform="scale(16.964686)" /><path
   style="fill:#0e16e6;fill-opacity:0;stroke-width:0.45721853"
   d="m 480.6281,215.40804 c -22.70645,-3.59512 -41.52022,-13.08174 -57.07287,-28.77835 -14.88325,-15.021 -25.00471,-36.03512 -27.25502,-56.58669 -0.61144,-5.58423 -0.62122,-16.68611 -0.0194,-22.07881 3.15416,-28.265162 19.17217,-54.161263 43.19767,-69.837097 8.48227,-5.534402 15.59231,-8.871227 25.95262,-12.179876 7.02903,-2.24478 6.31539,-3.594474 6.17399,11.676729 l -0.12132,13.102137 -4.57218,1.902177 c -6.10764,2.540978 -8.46079,3.784699 -13.29754,7.028211 -18.74004,12.567025 -30.44561,32.940033 -31.95901,55.623219 -0.51273,7.68487 0.92634,17.99255 3.64638,26.11799 1.80754,5.39961 6.24324,14.02929 9.71851,18.90745 3.90911,5.48713 11.50371,13.1023 16.81417,16.8597 4.90222,3.46856 14.33042,8.15716 20.31635,10.10324 8.1555,2.65143 10.66131,2.98537 22.42286,2.98819 10.19063,0.002 10.99755,-0.0615 15.64968,-1.24119 15.05473,-3.81741 26.46931,-10.34137 36.71339,-20.9834 9.13539,-9.49027 15.22312,-20.91114 18.49197,-34.69185 0.77885,-3.28348 0.92235,-5.45667 0.92506,-14.00896 0.004,-11.42243 -0.44917,-14.77195 -3.0497,-22.560038 -3.51958,-10.540501 -9.16678,-19.529728 -17.52301,-27.893184 -7.97213,-7.979016 -16.49362,-13.57697 -25.78349,-16.93774 l -4.38195,-1.585241 10e-4,-12.116291 c 10e-4,-12.675494 0.12964,-14.173774 1.21359,-14.173774 1.38045,0 13.82937,4.311352 18.20701,6.305512 31.57543,14.383655 53.21328,43.762284 57.14726,77.591286 2.87434,24.71701 -4.12841,49.8704 -19.37698,69.60069 -8.79637,11.38171 -20.34738,21.08961 -32.47447,27.29278 -10.2293,5.23241 -18.33569,7.9987 -29.07117,9.92049 -7.14974,1.27989 -24.30779,1.63426 -30.63365,0.63269 z"
   id="path4614"
   inkscape:connector-curvature="0"
   transform="scale(16.964686)" /><path
   style="fill:#0e16e6;fill-opacity:0;stroke-width:0.45721853"
   d="m 489.77248,102.5527 c -2.01672,-0.91915 -4.66412,-3.840551 -6.07596,-6.704801 l -1.23954,-2.514702 -0.12395,-40.656556 c -0.1365,-44.7711103 -0.23043,-43.1116527 2.68986,-47.5204983 2.23967,-3.3812863 4.46743,-4.63830449 8.22025,-4.63830449 2.69151,0 3.33043,0.17534673 5.0628,1.38945969 2.10942,1.4783709 4.61729,5.1967493 5.53869,8.2121291 0.42201,1.381083 0.55884,11.568334 0.55884,41.606885 0,37.101701 -0.0553,39.936419 -0.82161,42.132449 -1.14011,3.267128 -3.18967,6.206679 -5.39132,7.732429 -2.20029,1.5248 -6.18384,1.9798 -8.41806,0.96151 z"
   id="path4616"
   inkscape:connector-curvature="0"
   transform="scale(16.964686)" /><path
   style="fill:#0e16e6;fill-opacity:0;stroke-width:0.45721853"
   d="m 489.77248,102.5527 c -2.01672,-0.91915 -4.66412,-3.840551 -6.07596,-6.704801 l -1.23954,-2.514702 -0.12395,-40.656556 c -0.1365,-44.7711103 -0.23043,-43.1116527 2.68986,-47.5204983 2.23967,-3.3812863 4.46743,-4.63830449 8.22025,-4.63830449 2.69151,0 3.33043,0.17534673 5.0628,1.38945969 2.10942,1.4783709 4.61729,5.1967493 5.53869,8.2121291 0.42201,1.381083 0.55884,11.568334 0.55884,41.606885 0,37.101701 -0.0553,39.936419 -0.82161,42.132449 -1.14011,3.267128 -3.18967,6.206679 -5.39132,7.732429 -2.20029,1.5248 -6.18384,1.9798 -8.41806,0.96151 z"
   id="path4618"
   inkscape:connector-curvature="0"
   transform="scale(16.964686)" /><path
   style="fill:#0e16e6;fill-opacity:0;stroke-width:0.45721853"
   d="m 489.77248,102.5527 c -2.01672,-0.91915 -4.66412,-3.840551 -6.07596,-6.704801 l -1.23954,-2.514702 -0.12395,-40.656556 c -0.1365,-44.7711103 -0.23043,-43.1116527 2.68986,-47.5204983 2.23967,-3.3812863 4.46743,-4.63830449 8.22025,-4.63830449 2.69151,0 3.33043,0.17534673 5.0628,1.38945969 2.10942,1.4783709 4.61729,5.1967493 5.53869,8.2121291 0.42201,1.381083 0.55884,11.568334 0.55884,41.606885 0,37.101701 -0.0553,39.936419 -0.82161,42.132449 -1.14011,3.267128 -3.18967,6.206679 -5.39132,7.732429 -2.20029,1.5248 -6.18384,1.9798 -8.41806,0.96151 z"
   id="path4620"
   inkscape:connector-curvature="0"
   transform="scale(16.964686)" /><path
   style="fill:#0e16e6;fill-opacity:0;stroke-width:0.45721853"
   d="m 489.77248,102.5527 c -2.01672,-0.91915 -4.66412,-3.840551 -6.07596,-6.704801 l -1.23954,-2.514702 -0.12395,-40.656556 c -0.1365,-44.7711103 -0.23043,-43.1116527 2.68986,-47.5204983 2.23967,-3.3812863 4.46743,-4.63830449 8.22025,-4.63830449 2.69151,0 3.33043,0.17534673 5.0628,1.38945969 2.10942,1.4783709 4.61729,5.1967493 5.53869,8.2121291 0.42201,1.381083 0.55884,11.568334 0.55884,41.606885 0,37.101701 -0.0553,39.936419 -0.82161,42.132449 -1.14011,3.267128 -3.18967,6.206679 -5.39132,7.732429 -2.20029,1.5248 -6.18384,1.9798 -8.41806,0.96151 z"
   id="path4622"
   inkscape:connector-curvature="0"
   transform="scale(16.964686)" /><path
   style="fill:#0e16e6;fill-opacity:0;stroke-width:0.45721853"
   d="m 489.77248,102.5527 c -2.01672,-0.91915 -4.66412,-3.840551 -6.07596,-6.704801 l -1.23954,-2.514702 -0.12395,-40.656556 c -0.1365,-44.7711103 -0.23043,-43.1116527 2.68986,-47.5204983 2.23967,-3.3812863 4.46743,-4.63830449 8.22025,-4.63830449 2.69151,0 3.33043,0.17534673 5.0628,1.38945969 2.10942,1.4783709 4.61729,5.1967493 5.53869,8.2121291 0.42201,1.381083 0.55884,11.568334 0.55884,41.606885 0,37.101701 -0.0553,39.936419 -0.82161,42.132449 -1.14011,3.267128 -3.18967,6.206679 -5.39132,7.732429 -2.20029,1.5248 -6.18384,1.9798 -8.41806,0.96151 z"
   id="path4624"
   inkscape:connector-curvature="0"
   transform="scale(16.964686)" /><path
   style="fill:#0e16e6;fill-opacity:0;stroke-width:0.45721853"
   d="m 489.77248,102.5527 c -2.01672,-0.91915 -4.66412,-3.840551 -6.07596,-6.704801 l -1.23954,-2.514702 -0.12395,-40.656556 c -0.1365,-44.7711103 -0.23043,-43.1116527 2.68986,-47.5204983 2.23967,-3.3812863 4.46743,-4.63830449 8.22025,-4.63830449 2.69151,0 3.33043,0.17534673 5.0628,1.38945969 2.10942,1.4783709 4.61729,5.1967493 5.53869,8.2121291 0.42201,1.381083 0.55884,11.568334 0.55884,41.606885 0,37.101701 -0.0553,39.936419 -0.82161,42.132449 -1.14011,3.267128 -3.18967,6.206679 -5.39132,7.732429 -2.20029,1.5248 -6.18384,1.9798 -8.41806,0.96151 z"
   id="path4626"
   inkscape:connector-curvature="0"
   transform="scale(16.964686)" /><path
   style="fill:#0e16e6;fill-opacity:0;stroke-width:0.45721853"
   d="m 489.77248,102.5527 c -2.01672,-0.91915 -4.66412,-3.840551 -6.07596,-6.704801 l -1.23954,-2.514702 -0.12395,-40.656556 c -0.1365,-44.7711103 -0.23043,-43.1116527 2.68986,-47.5204983 2.23967,-3.3812863 4.46743,-4.63830449 8.22025,-4.63830449 2.69151,0 3.33043,0.17534673 5.0628,1.38945969 2.10942,1.4783709 4.61729,5.1967493 5.53869,8.2121291 0.42201,1.381083 0.55884,11.568334 0.55884,41.606885 0,37.101701 -0.0553,39.936419 -0.82161,42.132449 -1.14011,3.267128 -3.18967,6.206679 -5.39132,7.732429 -2.20029,1.5248 -6.18384,1.9798 -8.41806,0.96151 z"
   id="path4628"
   inkscape:connector-curvature="0"
   transform="scale(16.964686)" /><path
   style="fill:#0e16e6;fill-opacity:0;stroke-width:0.45721853"
   d="m 489.77248,102.5527 c -2.01672,-0.91915 -4.66412,-3.840551 -6.07596,-6.704801 l -1.23954,-2.514702 -0.12395,-40.656556 c -0.1365,-44.7711103 -0.23043,-43.1116527 2.68986,-47.5204983 2.23967,-3.3812863 4.46743,-4.63830449 8.22025,-4.63830449 2.69151,0 3.33043,0.17534673 5.0628,1.38945969 2.10942,1.4783709 4.61729,5.1967493 5.53869,8.2121291 0.42201,1.381083 0.55884,11.568334 0.55884,41.606885 0,37.101701 -0.0553,39.936419 -0.82161,42.132449 -1.14011,3.267128 -3.18967,6.206679 -5.39132,7.732429 -2.20029,1.5248 -6.18384,1.9798 -8.41806,0.96151 z"
   id="path4630"
   inkscape:connector-curvature="0"
   transform="scale(16.964686)" /><path
   style="fill:#0e16e6;fill-opacity:0;stroke-width:0.45721853"
   d="m 489.77248,102.5527 c -2.01672,-0.91915 -4.66412,-3.840551 -6.07596,-6.704801 l -1.23954,-2.514702 -0.12395,-40.656556 c -0.1365,-44.7711103 -0.23043,-43.1116527 2.68986,-47.5204983 2.23967,-3.3812863 4.46743,-4.63830449 8.22025,-4.63830449 2.69151,0 3.33043,0.17534673 5.0628,1.38945969 2.10942,1.4783709 4.61729,5.1967493 5.53869,8.2121291 0.42201,1.381083 0.55884,11.568334 0.55884,41.606885 0,37.101701 -0.0553,39.936419 -0.82161,42.132449 -1.14011,3.267128 -3.18967,6.206679 -5.39132,7.732429 -2.20029,1.5248 -6.18384,1.9798 -8.41806,0.96151 z"
   id="path4632"
   inkscape:connector-curvature="0"
   transform="scale(16.964686)" /><path
   style="fill:#0e16e6;fill-opacity:0;stroke-width:0.45721853"
   d="m 489.77248,102.5527 c -2.01672,-0.91915 -4.66412,-3.840551 -6.07596,-6.704801 l -1.23954,-2.514702 -0.12395,-40.656556 c -0.1365,-44.7711103 -0.23043,-43.1116527 2.68986,-47.5204983 2.23967,-3.3812863 4.46743,-4.63830449 8.22025,-4.63830449 2.69151,0 3.33043,0.17534673 5.0628,1.38945969 2.10942,1.4783709 4.61729,5.1967493 5.53869,8.2121291 0.42201,1.381083 0.55884,11.568334 0.55884,41.606885 0,37.101701 -0.0553,39.936419 -0.82161,42.132449 -1.14011,3.267128 -3.18967,6.206679 -5.39132,7.732429 -2.20029,1.5248 -6.18384,1.9798 -8.41806,0.96151 z"
   id="path4634"
   inkscape:connector-curvature="0"
   transform="scale(16.964686)" /><path
   style="fill:#0e16e6;fill-opacity:0;stroke-width:0.45721853"
   d="m 489.77248,102.5527 c -2.01672,-0.91915 -4.66412,-3.840551 -6.07596,-6.704801 l -1.23954,-2.514702 -0.12395,-40.656556 c -0.1365,-44.7711103 -0.23043,-43.1116527 2.68986,-47.5204983 2.23967,-3.3812863 4.46743,-4.63830449 8.22025,-4.63830449 2.69151,0 3.33043,0.17534673 5.0628,1.38945969 2.10942,1.4783709 4.61729,5.1967493 5.53869,8.2121291 0.42201,1.381083 0.55884,11.568334 0.55884,41.606885 0,37.101701 -0.0553,39.936419 -0.82161,42.132449 -1.14011,3.267128 -3.18967,6.206679 -5.39132,7.732429 -2.20029,1.5248 -6.18384,1.9798 -8.41806,0.96151 z"
   id="path4636"
   inkscape:connector-curvature="0"
   transform="scale(16.964686)" /><path
   style="fill:#0e16e6;fill-opacity:0;stroke-width:0.45721853"
   d="m 489.77248,102.5527 c -2.01672,-0.91915 -4.66412,-3.840551 -6.07596,-6.704801 l -1.23954,-2.514702 -0.12395,-40.656556 c -0.1365,-44.7711103 -0.23043,-43.1116527 2.68986,-47.5204983 2.23967,-3.3812863 4.46743,-4.63830449 8.22025,-4.63830449 2.69151,0 3.33043,0.17534673 5.0628,1.38945969 2.10942,1.4783709 4.61729,5.1967493 5.53869,8.2121291 0.42201,1.381083 0.55884,11.568334 0.55884,41.606885 0,37.101701 -0.0553,39.936419 -0.82161,42.132449 -1.14011,3.267128 -3.18967,6.206679 -5.39132,7.732429 -2.20029,1.5248 -6.18384,1.9798 -8.41806,0.96151 z"
   id="path4638"
   inkscape:connector-curvature="0"
   transform="scale(16.964686)" /><path
   style="fill:#0e16e6;fill-opacity:0;stroke-width:0.45721853"
   d="m 489.77248,102.5527 c -2.01672,-0.91915 -4.66412,-3.840551 -6.07596,-6.704801 l -1.23954,-2.514702 -0.12395,-40.656556 c -0.1365,-44.7711103 -0.23043,-43.1116527 2.68986,-47.5204983 2.23967,-3.3812863 4.46743,-4.63830449 8.22025,-4.63830449 2.69151,0 3.33043,0.17534673 5.0628,1.38945969 2.10942,1.4783709 4.61729,5.1967493 5.53869,8.2121291 0.42201,1.381083 0.55884,11.568334 0.55884,41.606885 0,37.101701 -0.0553,39.936419 -0.82161,42.132449 -1.14011,3.267128 -3.18967,6.206679 -5.39132,7.732429 -2.20029,1.5248 -6.18384,1.9798 -8.41806,0.96151 z"
   id="path4640"
   inkscape:connector-curvature="0"
   transform="scale(16.964686)" /><path
   style="fill:#0e16e6;fill-opacity:1;stroke-width:0.45721853"
   d="m 489.77248,102.5527 c -2.01672,-0.91915 -4.66412,-3.840551 -6.07596,-6.704801 l -1.23954,-2.514702 -0.12395,-40.656556 c -0.1365,-44.7711103 -0.23043,-43.1116527 2.68986,-47.5204983 2.23967,-3.3812863 4.46743,-4.63830449 8.22025,-4.63830449 2.69151,0 3.33043,0.17534673 5.0628,1.38945969 2.10942,1.4783709 4.61729,5.1967493 5.53869,8.2121291 0.42201,1.381083 0.55884,11.568334 0.55884,41.606885 0,37.101701 -0.0553,39.936419 -0.82161,42.132449 -1.14011,3.267128 -3.18967,6.206679 -5.39132,7.732429 -2.20029,1.5248 -6.18384,1.9798 -8.41806,0.96151 z"
   id="path4642"
   inkscape:connector-curvature="0"
   transform="scale(16.964686)" /><path
   style="fill:#0e16e6;fill-opacity:1;stroke-width:0.45721853"
   d="m 480.6281,215.40804 c -22.70645,-3.59512 -41.52022,-13.08174 -57.07287,-28.77835 -14.88325,-15.021 -25.00471,-36.03512 -27.25502,-56.58669 -0.61144,-5.58423 -0.62122,-16.68611 -0.0194,-22.07881 3.15416,-28.265162 19.17217,-54.161263 43.19767,-69.837097 8.48227,-5.534402 15.59231,-8.871227 25.95262,-12.179876 7.02903,-2.24478 6.31539,-3.594474 6.17399,11.676729 l -0.12132,13.102137 -4.57218,1.902177 c -6.10764,2.540978 -8.46079,3.784699 -13.29754,7.028211 -18.74004,12.567025 -30.44561,32.940033 -31.95901,55.623219 -0.51273,7.68487 0.92634,17.99255 3.64638,26.11799 1.80754,5.39961 6.24324,14.02929 9.71851,18.90745 3.90911,5.48713 11.50371,13.1023 16.81417,16.8597 4.90222,3.46856 14.33042,8.15716 20.31635,10.10324 8.1555,2.65143 10.66131,2.98537 22.42286,2.98819 10.19063,0.002 10.99755,-0.0615 15.64968,-1.24119 15.05473,-3.81741 26.46931,-10.34137 36.71339,-20.9834 9.13539,-9.49027 15.22312,-20.91114 18.49197,-34.69185 0.77885,-3.28348 0.92235,-5.45667 0.92506,-14.00896 0.004,-11.42243 -0.44917,-14.77195 -3.0497,-22.560038 -3.51958,-10.540501 -9.16678,-19.529728 -17.52301,-27.893184 -7.97213,-7.979016 -16.49362,-13.57697 -25.78349,-16.93774 l -4.38195,-1.585241 10e-4,-12.116291 c 10e-4,-12.675494 0.12964,-14.173774 1.21359,-14.173774 1.38045,0 13.82937,4.311352 18.20701,6.305512 31.57543,14.383655 53.21328,43.762284 57.14726,77.591286 2.87434,24.71701 -4.12841,49.8704 -19.37698,69.60069 -8.79637,11.38171 -20.34738,21.08961 -32.47447,27.29278 -10.2293,5.23241 -18.33569,7.9987 -29.07117,9.92049 -7.14974,1.27989 -24.30779,1.63426 -30.63365,0.63269 z"
   id="path4644"
   inkscape:connector-curvature="0"
   transform="scale(16.964686)" /><path
   style="fill:#0e16e6;fill-opacity:1;stroke-width:0.45721853"
   d="m 487.53803,100.42849 c -1.32457,-1.252722 -2.96349,-3.374965 -3.64204,-4.716097 l -1.23373,-2.438419 0.12597,-41.805885 c 0.14044,-46.6088992 -0.10434,-43.1354815 3.33565,-47.33353 2.0428,-2.4929749 4.7544,-3.58026685 8.21345,-3.29341586 3.11369,0.25821166 5.09036,1.71974926 7.42101,5.48705546 1.386,2.2403615 1.67412,3.2034951 2.0352,6.8033154 0.23151,2.308097 0.36039,21.177315 0.28666,41.968975 -0.13299,37.504208 -0.14097,37.790267 -1.11149,39.832973 -2.64299,5.562838 -5.5563,7.744488 -10.36599,7.762678 -2.56449,0.01 -2.73968,-0.0687 -5.06469,-2.26765 z"
   id="path4646"
   inkscape:connector-curvature="0"
   transform="scale(16.964686)" /><path
   style="fill:#0e16e6;fill-opacity:1;stroke-width:0.45721853"
   d="m 490.91552,216.41959 c -0.12573,-0.12923 -2.28609,-0.36538 -4.80079,-0.52476 -4.80741,-0.3047 -9.58367,-0.96629 -11.88768,-1.64662 -0.75442,-0.22277 -1.98891,-0.52612 -2.74332,-0.67411 -0.75441,-0.148 -1.5774,-0.32898 -1.82887,-0.40218 -0.25147,-0.0732 -1.07446,-0.29528 -1.82887,-0.49354 -1.79709,-0.47225 -7.97605,-2.45957 -9.14437,-2.94107 -0.50294,-0.20728 -1.42881,-0.59148 -2.05749,-0.85377 -1.49005,-0.62167 -11.38959,-5.48586 -12.57351,-6.17805 -3.62322,-2.11836 -6.16506,-3.80692 -6.16845,-4.09773 -0.002,-0.1886 -0.22444,-0.34291 -0.49387,-0.34291 -0.26944,0 -0.7586,-0.25719 -1.08703,-0.57153 -0.32843,-0.31433 -1.06321,-0.88014 -1.63284,-1.25735 -0.56963,-0.3772 -1.5031,-1.09732 -2.07437,-1.60026 -0.57127,-0.50294 -1.93071,-1.62687 -3.02099,-2.49762 -3.42302,-2.7338 -10.52492,-10.11355 -12.95556,-13.46243 -0.89864,-1.23813 -2.04451,-2.70567 -2.96344,-3.79535 -0.25613,-0.30373 -0.4657,-0.76666 -0.4657,-1.02875 0,-0.26208 -0.20574,-0.47651 -0.45722,-0.47651 -0.25147,0 -0.45721,-0.30863 -0.45721,-0.68583 0,-0.37721 -0.20575,-0.68583 -0.45722,-0.68583 -0.25147,0 -0.45722,-0.30862 -0.45722,-0.68583 0,-0.3772 -0.18175,-0.68582 -0.40389,-0.68582 -0.22214,0 -0.53589,-0.36006 -0.69721,-0.80014 -0.40193,-1.09644 -1.71896,-3.49264 -2.07324,-3.77205 -0.30549,-0.24093 -4.46923,-8.72155 -5.05082,-10.28742 -0.18681,-0.50294 -0.55605,-1.4288 -0.82054,-2.05748 -2.40635,-5.71967 -5.13948,-16.08176 -5.90925,-22.40371 -0.47459,-3.89764 -0.4658,-21.2874 0.0128,-25.37562 1.95701,-16.716083 10.36881,-35.684396 21.89818,-49.379604 4.74689,-5.638602 11.43201,-11.917592 16.30755,-15.316821 0.90171,-0.628675 2.04164,-1.502967 2.53316,-1.942871 0.49153,-0.439905 1.47228,-1.055938 2.17945,-1.368963 0.70718,-0.313026 1.28577,-0.700665 1.28577,-0.861418 0,-0.160755 0.36006,-0.416754 0.80014,-0.568889 0.44007,-0.152135 1.41737,-0.683742 2.17178,-1.181351 4.83781,-3.191008 20.63117,-9.868408 25.48244,-10.773917 1.5768,-0.294315 1.74449,-0.22023 2.1973,0.970758 0.31159,0.819536 0.46005,5.622108 0.40742,13.179393 l -0.0828,11.890004 -5.09922,2.107457 c -16.27295,6.725449 -29.40113,18.973547 -37.38077,34.874848 -11.49555,22.907544 -9.53627,49.525084 5.25628,71.408714 3.82431,5.65756 13.425,15.21494 19.00133,18.91563 5.44491,3.61347 12.1945,6.89963 18.33696,8.92768 8.41858,2.77955 10.99043,3.14443 22.40371,3.17852 11.01683,0.0329 11.20557,0.0147 17.90062,-1.7279 24.2175,-6.30332 43.42487,-24.2165 51.29737,-47.84095 2.78453,-8.35605 3.17374,-11.52912 2.91266,-23.74569 -0.24038,-11.24811 -0.33092,-11.86311 -2.92815,-19.889005 -2.32539,-7.185884 -6.85404,-15.625159 -11.53149,-21.48927 -2.9299,-3.673225 -10.43252,-10.904466 -14.44386,-13.921427 -5.39119,-4.054756 -10.26155,-6.765838 -16.56952,-9.223419 l -5.13905,-2.002172 0.0204,-12.893568 c 0.0194,-12.2287 0.0649,-12.907699 0.88389,-13.167626 0.89523,-0.284134 8.48167,1.813678 9.48811,2.623664 0.31434,0.252979 0.57153,0.306703 0.57153,0.119385 0,-0.187317 0.34024,-0.0582 0.75609,0.28693 0.41586,0.345129 0.8788,0.600719 1.02874,0.567978 0.14996,-0.03274 0.78702,0.13984 1.4157,0.383514 0.62867,0.243675 1.47979,0.511345 1.89137,0.594823 0.41157,0.08348 1.13169,0.344409 1.60026,0.579847 0.46857,0.235437 2.6008,1.276671 4.7383,2.313854 2.1375,1.037182 4.70935,2.40257 5.71523,3.034194 1.00588,0.631625 2.1375,1.287319 2.5147,1.4571 0.66682,0.300136 4.33907,2.715552 5.25801,3.458452 0.25147,0.203296 1.89746,1.435842 3.65775,2.738992 3.19053,2.361962 13.73321,12.612912 15.65104,15.217957 1.62202,2.203235 3.03986,4.072653 3.54239,4.670622 0.25683,0.305611 0.72415,0.862735 1.03849,1.238054 0.31434,0.375318 0.57153,0.896829 0.57153,1.158913 0,0.262084 0.20574,0.476516 0.45721,0.476516 0.25147,0 0.45722,0.308623 0.45722,0.685828 0,0.377205 0.18176,0.685828 0.4039,0.685828 0.22214,0 0.52836,0.360059 0.6805,0.800132 0.15213,0.440073 0.67502,1.417378 1.16196,2.171788 0.87678,1.35836 5.205,9.946428 6.56724,13.030728 0.59734,1.35248 1.93159,5.274468 3.96637,11.659072 0.24044,0.754411 0.53806,1.886027 0.6614,2.514702 0.12334,0.628675 0.53065,2.686159 0.90515,4.572184 1.081,5.44412 1.42829,9.75875 1.41688,17.60291 -0.0121,8.33593 -0.59388,14.52456 -1.84813,19.6604 -0.0614,0.25147 -0.24493,1.07446 -0.40782,1.82887 -0.16289,0.75441 -0.35605,1.57741 -0.42925,1.82888 -0.0732,0.25147 -0.29647,1.07446 -0.49617,1.82887 -0.68511,2.58808 -3.0289,9.60188 -3.66692,10.97325 -3.49955,7.52193 -7.75574,15.71124 -8.4358,16.23125 -0.16443,0.12574 -0.79885,1.05161 -1.40983,2.05749 -3.56256,5.86526 -14.27447,17.22486 -20.85716,22.11828 -1.7219,1.28003 -3.35261,2.5117 -3.62379,2.73707 -0.44467,0.36953 -3.05024,2.08523 -5.45078,3.5892 -2.65132,1.66109 -16.02054,7.99572 -19.05077,9.02668 -9.05868,3.08199 -17.40535,4.66598 -26.42397,5.01462 -1.64473,0.0636 -4.43066,0.2746 -6.19095,0.46894 -1.76029,0.19434 -3.3034,0.2476 -3.42914,0.11836 z"
   id="path4648"
   inkscape:connector-curvature="0"
   transform="scale(16.964686)" /></svg>