<?xml version="1.0" standalone="no"?>
<!DOCTYPE svg PUBLIC "-//W3C//DTD SVG 20010904//EN"
 "http://www.w3.org/TR/2001/REC-SVG-20010904/DTD/svg10.dtd">
<svg version="1.0" xmlns="http://www.w3.org/2000/svg"
 width="1104.000000pt" height="1104.000000pt" viewBox="0 0 1104.000000 1104.000000"
 preserveAspectRatio="xMidYMid meet">
<metadata>
Created by potrace 1.11, written by Peter Selinger 2001-2013
</metadata>
<g transform="translate(0.000000,1104.000000) scale(0.100000,-0.100000)"
fill="#000000" stroke="none">
<path d="M5450 11020 c-30 -10 -57 -17 -61 -14 -4 2 -9 0 -11 -6 -1 -5 -12
-11 -23 -13 -11 -1 -26 -6 -32 -10 -7 -5 -13 -6 -13 -3 0 3 -12 1 -27 -5 -25
-10 -42 -14 -78 -22 -5 -2 -14 -5 -20 -8 -9 -6 -47 -16 -70 -20 -5 0 -26 -7
-45 -15 -29 -11 -112 -36 -130 -38 -3 -1 -18 -6 -35 -12 -16 -7 -55 -19 -85
-28 -30 -8 -80 -23 -110 -32 -30 -10 -56 -17 -57 -16 -2 1 -22 -6 -45 -14 -24
-9 -47 -17 -53 -18 -5 -2 -30 -9 -55 -16 -25 -8 -48 -14 -52 -16 -5 -1 -10 -3
-13 -4 -3 -1 -8 -3 -12 -4 -5 -1 -35 -10 -68 -20 -33 -10 -64 -19 -70 -20 -5
-1 -15 -4 -20 -8 -6 -3 -27 -9 -48 -13 -21 -4 -41 -13 -43 -20 -10 -26 -9
-805 1 -809 7 -3 7 -5 0 -5 -6 -1 -9 -30 -8 -70 2 -66 -5 -86 -32 -91 -19 -4
-30 -8 -130 -43 -87 -31 -137 -47 -155 -52 -3 -1 -14 -5 -25 -9 -72 -28 -102
-38 -115 -41 -8 -2 -53 -18 -100 -35 -47 -17 -89 -32 -95 -33 -5 -2 -14 -5
-20 -9 -14 -8 -98 -32 -107 -30 -5 1 -8 -2 -8 -7 0 -5 -15 -12 -32 -16 -18 -4
-35 -8 -38 -9 -10 -3 -106 -38 -125 -46 -11 -5 -45 -16 -75 -25 -30 -10 -68
-23 -85 -30 -16 -8 -95 -36 -175 -63 -80 -27 -224 -78 -320 -112 -96 -34 -187
-64 -202 -66 -24 -5 -28 -2 -26 18 1 13 -2 64 -6 113 -10 112 -12 146 -21 265
-3 52 -8 115 -11 140 -6 55 -16 219 -18 277 -1 24 -4 43 -7 43 -3 0 -5 16 -4
35 1 19 -1 35 -5 35 -7 0 -89 -31 -145 -55 -42 -19 -129 -53 -205 -81 -36 -13
-74 -28 -85 -34 -11 -5 -47 -20 -80 -33 -33 -13 -69 -28 -80 -32 -11 -4 -24
-9 -30 -10 -5 -2 -30 -12 -55 -23 -46 -20 -77 -33 -95 -38 -13 -4 -333 -132
-360 -144 -11 -5 -45 -19 -75 -31 -30 -11 -68 -26 -85 -34 -16 -7 -73 -30
-125 -50 -52 -21 -98 -43 -102 -49 -5 -6 -6 -49 -3 -96 11 -169 14 -226 20
-300 8 -110 14 -177 21 -250 3 -36 8 -83 10 -105 3 -40 8 -86 19 -180 4 -27 8
-70 11 -95 4 -43 7 -69 19 -155 14 -103 17 -133 21 -170 2 -21 7 -51 10 -65
10 -47 19 -109 29 -185 4 -27 13 -83 21 -120 3 -16 7 -39 9 -50 3 -24 13 -78
21 -120 3 -16 7 -41 9 -55 3 -23 60 -307 71 -355 3 -11 7 -31 10 -45 3 -14 9
-41 14 -60 5 -19 11 -46 14 -60 3 -14 9 -38 13 -55 5 -16 9 -37 8 -45 0 -8 2
-17 6 -20 6 -5 14 -36 24 -97 2 -12 8 -37 14 -55 6 -18 13 -44 15 -58 3 -14
14 -59 26 -100 22 -81 22 -82 39 -150 7 -25 19 -63 27 -85 9 -22 16 -42 15
-45 0 -3 4 -23 10 -45 6 -22 13 -48 14 -57 2 -9 9 -26 15 -38 6 -12 9 -24 6
-27 -3 -3 1 -18 9 -34 8 -15 17 -36 18 -46 8 -42 20 -79 30 -90 5 -7 7 -13 4
-13 -2 0 15 -57 39 -127 25 -71 47 -139 50 -152 3 -14 8 -29 12 -35 4 -6 7
-14 8 -18 1 -5 2 -9 4 -10 1 -2 3 -12 5 -22 2 -10 7 -22 12 -25 4 -3 10 -17
11 -31 2 -14 8 -29 13 -34 5 -6 9 -17 9 -26 0 -9 9 -35 20 -58 11 -22 20 -45
20 -50 0 -5 18 -53 40 -108 22 -54 40 -105 40 -111 0 -7 5 -13 10 -13 6 0 9
-3 8 -8 -3 -7 28 -89 67 -177 12 -27 32 -75 45 -105 21 -52 87 -199 153 -340
17 -36 31 -67 32 -70 1 -6 178 -357 233 -463 22 -43 46 -84 52 -92 7 -8 9 -15
4 -15 -5 0 -4 -4 2 -8 6 -4 23 -29 37 -57 14 -27 62 -112 106 -189 45 -76 81
-142 81 -147 0 -5 5 -9 10 -9 6 0 10 -6 10 -14 0 -8 6 -21 13 -28 7 -7 26 -35
41 -63 16 -27 33 -53 38 -56 6 -3 9 -10 9 -15 -1 -5 6 -17 14 -27 8 -9 15 -20
15 -22 0 -3 32 -53 70 -111 38 -59 70 -110 70 -114 0 -5 3 -10 8 -12 10 -5 72
-97 72 -108 0 -6 5 -10 10 -10 6 0 10 -4 10 -10 0 -5 7 -18 15 -27 8 -10 49
-67 92 -128 42 -60 82 -113 88 -117 6 -5 6 -8 0 -8 -6 0 -6 -3 1 -8 5 -4 23
-25 40 -47 16 -22 37 -49 47 -59 9 -11 17 -23 17 -27 0 -4 12 -21 28 -38 15
-16 43 -52 62 -78 19 -26 40 -53 45 -60 6 -7 15 -18 20 -25 6 -7 31 -39 58
-70 26 -31 47 -59 47 -63 0 -3 10 -16 22 -29 36 -36 78 -85 78 -90 0 -3 10
-16 22 -28 13 -13 42 -46 65 -74 24 -28 53 -62 65 -76 13 -13 40 -44 61 -69
115 -132 217 -239 447 -469 141 -140 274 -270 295 -289 22 -18 61 -52 86 -76
46 -43 93 -84 189 -165 29 -25 58 -50 64 -55 6 -6 45 -38 86 -70 88 -71 118
-96 136 -113 7 -6 17 -12 21 -12 5 0 22 -14 38 -30 16 -17 35 -30 42 -30 7 0
13 -4 13 -8 0 -5 21 -23 48 -41 26 -17 67 -47 92 -67 25 -19 53 -37 63 -40 9
-4 17 -10 17 -15 0 -5 5 -9 10 -9 6 0 20 -8 31 -18 10 -11 32 -25 47 -33 15
-8 35 -21 45 -31 35 -31 52 -26 153 41 121 80 208 143 212 153 2 5 9 8 15 8 7
0 26 14 44 30 18 17 35 30 39 30 4 0 14 7 23 15 9 9 57 47 106 86 50 39 99 78
110 87 164 137 196 165 217 185 10 9 20 17 22 17 3 0 17 12 33 28 16 15 73 68
128 117 55 50 203 194 330 320 230 230 326 332 485 515 30 35 60 68 65 74 6 6
46 54 90 106 43 52 83 100 89 107 12 14 23 28 125 158 39 50 83 105 98 124 16
19 30 39 32 45 2 6 9 16 15 22 15 15 82 106 189 254 25 36 51 70 57 77 5 7 10
16 10 22 0 5 3 11 8 13 4 1 25 30 47 63 21 33 45 66 52 73 7 7 13 20 13 28 0
8 4 14 8 14 4 0 17 14 27 32 37 60 60 95 98 152 20 31 37 61 37 66 0 6 4 10 8
10 5 0 15 12 23 27 7 16 33 58 56 95 24 37 43 70 43 73 0 4 13 25 28 48 41 61
142 243 142 256 0 6 4 11 9 11 4 0 19 23 32 50 13 28 27 50 31 50 5 0 8 9 8
19 0 11 4 22 9 25 4 3 21 32 37 63 16 32 41 79 56 105 15 27 25 48 22 48 -3 0
3 12 13 27 21 30 133 257 133 268 0 4 9 20 21 37 12 16 18 32 15 35 -3 3 -1
12 6 20 12 14 92 187 134 288 14 33 31 74 38 90 8 17 19 41 24 55 6 14 20 45
30 70 11 25 36 88 56 140 21 52 42 106 49 120 6 14 11 27 11 30 1 3 7 19 13
35 77 196 274 778 289 854 3 14 7 28 10 33 3 4 7 18 10 30 6 29 9 39 17 58 10
26 86 307 92 341 3 17 10 40 16 50 5 11 8 19 5 19 -3 0 0 15 5 33 6 17 12 41
13 52 2 11 9 40 16 65 7 25 14 56 16 70 3 14 7 32 10 40 3 8 8 26 10 40 3 14
12 54 20 90 25 107 36 158 39 185 1 11 5 27 8 35 4 12 16 71 32 160 7 41 16
88 20 110 3 14 14 77 24 140 11 63 22 131 26 150 21 126 40 249 51 340 3 25 7
61 10 80 3 19 7 53 9 75 6 58 13 114 19 160 6 50 16 145 21 205 2 25 6 68 9
95 6 53 18 197 20 230 1 11 5 26 9 33 5 7 3 12 -3 12 -6 0 -9 4 -6 8 5 9 11
89 21 280 l5 92 -25 0 c-14 0 -25 5 -25 10 0 6 -5 10 -12 10 -9 0 -166 60
-273 105 -38 16 -64 25 -68 23 -1 -1 -15 5 -32 14 -54 29 -153 67 -159 61 -3
-4 -6 -1 -6 5 0 7 -7 12 -15 12 -8 0 -39 11 -69 24 -30 13 -57 22 -60 18 -3
-3 -6 0 -6 6 0 7 -5 12 -11 12 -10 0 -101 34 -174 65 -16 7 -73 30 -125 50
-98 38 -133 53 -185 75 -16 7 -35 14 -42 16 -7 1 -27 9 -44 18 -18 9 -40 16
-51 16 -10 0 -18 5 -18 10 0 6 -6 10 -13 10 -8 0 -27 7 -44 15 -16 8 -40 16
-54 17 -21 3 -24 -1 -26 -32 0 -19 -2 -35 -3 -35 -1 0 -3 -22 -5 -50 -1 -27
-5 -88 -9 -135 -4 -47 -9 -110 -11 -140 -2 -30 -7 -93 -11 -140 -4 -47 -8
-101 -9 -120 -5 -67 -16 -225 -18 -245 -2 -24 -18 -37 -32 -25 -5 4 -44 19
-85 33 -63 21 -360 124 -410 143 -8 3 -16 5 -17 5 -2 0 -31 10 -65 23 -35 13
-106 38 -158 56 -52 18 -101 37 -107 43 -7 5 -13 7 -13 3 0 -3 -17 1 -37 10
-21 9 -42 17 -48 18 -5 2 -17 6 -25 9 -8 3 -44 15 -80 27 -36 12 -72 24 -80
27 -23 9 -204 73 -215 77 -10 3 -28 10 -80 29 -16 6 -34 12 -40 14 -5 1 -55
18 -110 38 -55 20 -107 38 -115 40 -8 3 -44 15 -80 28 l-65 23 0 174 c0 105
-4 178 -10 182 -7 5 -7 8 0 8 10 0 11 554 1 594 -3 10 -9 15 -15 11 -6 -3 -11
-2 -11 3 0 5 -6 9 -12 9 -7 0 -67 17 -133 38 -66 20 -133 41 -150 45 -16 4
-43 13 -60 20 -16 6 -32 11 -35 11 -10 0 -55 12 -65 18 -5 3 -14 6 -20 7 -5 1
-50 14 -100 29 -85 25 -122 36 -282 86 -38 11 -77 23 -88 26 -11 2 -27 7 -35
10 -8 3 -22 8 -30 10 -25 6 -33 9 -95 28 -33 10 -64 19 -70 20 -5 2 -31 10
-57 19 -74 25 -99 26 -158 6z m350 -2754 c47 -3 121 -9 165 -12 44 -4 92 -8
108 -8 15 -1 27 -3 27 -6 0 -3 17 -5 38 -6 43 -1 153 -13 185 -21 12 -2 29 -5
37 -5 8 0 38 -4 65 -9 28 -5 64 -12 80 -15 63 -10 248 -48 345 -70 14 -3 32
-7 40 -9 8 -2 15 -4 15 -5 0 -2 16 -6 55 -13 14 -3 27 -7 30 -8 3 -1 10 -3 15
-4 6 -1 17 -4 25 -7 16 -6 154 -46 180 -52 27 -7 155 -47 175 -56 11 -4 56
-20 100 -35 91 -32 303 -115 385 -152 30 -14 75 -35 100 -46 25 -11 47 -21 50
-22 11 -2 165 -80 170 -85 3 -3 21 -14 40 -24 41 -23 120 -98 120 -115 0 -6 3
-11 8 -11 10 0 41 -73 58 -133 25 -96 5 -234 -48 -329 -23 -41 -123 -132 -169
-155 -76 -37 -108 -45 -189 -47 -79 -3 -122 9 -235 63 -55 27 -129 62 -165 79
-96 45 -306 132 -319 132 -6 0 -27 7 -48 16 -62 27 -92 38 -133 49 -3 1 -12 4
-20 8 -16 6 -118 39 -135 44 -5 1 -44 12 -85 24 -66 18 -115 31 -172 45 -10 2
-28 7 -40 10 -13 3 -33 7 -45 9 -11 2 -32 7 -45 11 -12 4 -32 9 -43 11 -25 3
-55 9 -125 23 -30 6 -68 13 -85 16 -16 3 -43 7 -60 10 -16 3 -46 7 -65 9 -19
2 -51 6 -70 9 -320 48 -810 52 -1118 11 -26 -4 -58 -8 -72 -10 -54 -6 -128
-17 -185 -27 -33 -5 -71 -12 -85 -14 -14 -3 -50 -10 -80 -16 -30 -7 -62 -12
-70 -13 -8 -1 -31 -5 -50 -10 -19 -5 -38 -10 -42 -11 -5 -1 -9 -2 -10 -4 -2
-1 -11 -3 -22 -5 -128 -24 -532 -148 -651 -199 -16 -8 -64 -26 -105 -42 -41
-16 -76 -32 -78 -36 -2 -5 -10 -8 -17 -8 -8 0 -71 -27 -140 -60 -69 -32 -129
-60 -133 -60 -4 -1 -12 -6 -18 -11 -14 -11 -92 -40 -124 -45 -64 -10 -100 -10
-100 -1 0 5 -6 4 -14 -2 -10 -8 -16 -9 -21 -1 -3 6 -11 8 -16 5 -5 -4 -15 -3
-21 2 -7 4 -21 9 -31 10 -41 7 -126 59 -173 108 -45 46 -101 140 -111 185 -12
54 -14 165 -4 207 13 52 49 133 66 145 7 5 7 8 0 8 -5 0 2 11 18 24 15 13 27
27 27 32 1 29 252 160 515 269 50 21 104 43 120 50 35 15 128 50 135 50 3 1
15 6 28 13 12 7 22 10 22 6 0 -3 6 -1 13 5 8 6 17 8 20 4 4 -3 7 -2 7 4 0 5 6
10 13 10 6 0 62 16 122 35 131 43 215 69 235 73 8 2 30 8 48 14 17 5 32 8 32
6 0 -3 12 0 28 6 23 9 231 59 302 73 14 2 50 10 80 16 30 6 71 13 90 16 19 3
46 8 60 10 14 3 42 6 62 7 21 1 38 5 38 9 0 3 11 5 25 3 14 -1 27 1 29 4 3 4
26 8 53 9 57 4 108 9 108 12 0 1 21 3 46 5 26 2 73 6 105 9 33 3 118 9 189 12
72 3 131 7 132 8 4 4 321 -2 403 -8z m-520 -1868 c0 10 505 9 610 -2 62 -6
140 -16 170 -22 14 -2 45 -6 70 -9 68 -8 91 -12 151 -24 30 -6 65 -13 79 -15
14 -3 36 -7 50 -10 14 -3 36 -8 50 -11 72 -15 164 -39 235 -61 33 -10 63 -18
67 -18 3 -1 10 -4 14 -8 4 -5 17 -8 29 -8 12 0 25 -3 29 -7 4 -5 11 -8 14 -9
4 0 14 -3 22 -6 8 -4 51 -18 95 -33 44 -15 86 -32 93 -37 6 -6 12 -8 12 -4 0
3 17 -3 37 -14 21 -11 41 -20 45 -20 6 0 124 -52 188 -83 14 -7 28 -16 32 -22
4 -5 8 -7 8 -3 0 5 37 -13 83 -38 45 -25 94 -51 110 -57 15 -6 27 -15 27 -19
0 -4 9 -8 20 -8 11 0 20 -4 20 -8 0 -4 12 -15 28 -24 35 -21 81 -66 108 -103
27 -38 56 -95 49 -95 -3 0 -1 -10 6 -21 20 -39 28 -135 16 -204 -12 -71 -76
-205 -98 -205 -5 0 -9 -6 -10 -12 -2 -34 -148 -119 -229 -134 -62 -10 -150
-11 -150 -1 0 4 -4 6 -9 2 -15 -9 -100 24 -186 73 -82 47 -224 119 -238 121
-4 0 -35 15 -68 32 -34 17 -69 32 -78 34 -9 2 -45 16 -81 30 -35 15 -71 29
-80 30 -15 4 -67 21 -105 36 -16 6 -107 31 -125 34 -3 1 -24 7 -46 13 -23 7
-62 16 -85 21 -24 5 -69 14 -99 21 -30 6 -71 13 -90 16 -57 7 -95 13 -95 14 0
3 -43 9 -105 15 -213 19 -496 19 -670 1 -81 -9 -134 -16 -170 -21 -19 -3 -51
-8 -70 -10 -19 -2 -66 -11 -105 -20 -38 -9 -81 -18 -95 -21 -53 -11 -177 -45
-212 -59 -21 -8 -38 -13 -38 -10 0 2 -16 -3 -35 -11 -19 -8 -35 -11 -35 -7 0
5 -4 3 -8 -2 -5 -9 -69 -33 -102 -40 -3 0 -14 -5 -25 -11 -11 -6 -47 -21 -80
-34 -33 -13 -69 -29 -80 -37 -11 -7 -27 -13 -37 -13 -10 0 -18 -4 -18 -10 0
-5 -5 -10 -10 -10 -11 0 -83 -34 -150 -72 -125 -70 -163 -90 -183 -94 -12 -2
-35 -7 -52 -10 -65 -14 -152 -6 -225 19 -97 33 -224 155 -236 226 -2 7 -7 18
-13 24 -6 6 -11 21 -11 33 0 13 -4 25 -9 28 -15 10 -6 177 13 230 22 65 79
149 125 185 104 82 492 277 696 349 17 5 39 14 50 18 11 4 23 8 28 9 4 2 8 3
10 5 1 1 9 3 17 5 8 2 32 10 53 19 20 9 37 14 37 11 0 -3 13 1 30 10 16 8 32
15 35 15 3 1 10 2 17 4 7 2 24 7 38 10 14 4 50 14 80 22 64 18 96 25 128 27
12 1 22 5 22 8 0 6 60 19 106 24 12 1 29 5 38 8 9 4 35 9 59 12 50 7 82 13 82
15 0 1 11 3 25 4 84 9 168 19 184 22 10 2 53 6 95 10 42 3 78 8 80 10 2 2 10
-1 18 -7 9 -8 13 -8 13 -1z m500 -1802 c23 -5 44 -8 153 -21 23 -3 56 -10 72
-15 17 -5 44 -11 60 -14 28 -5 131 -33 200 -54 53 -17 200 -74 211 -83 6 -5
14 -6 17 -2 4 3 7 1 7 -5 0 -7 3 -11 8 -10 9 3 183 -83 200 -99 7 -7 18 -13
23 -13 5 0 33 -24 62 -54 90 -93 126 -187 122 -322 -3 -111 -48 -207 -129
-282 -99 -90 -187 -122 -321 -118 -78 3 -90 6 -197 58 -174 85 -260 120 -343
139 -27 6 -57 13 -65 17 -8 3 -25 7 -38 8 -12 2 -37 5 -55 9 -107 19 -277 23
-407 11 -62 -6 -82 -9 -132 -22 -13 -3 -32 -7 -43 -8 -48 -8 -174 -47 -227
-70 -21 -9 -39 -15 -41 -14 -2 2 -15 -5 -30 -15 -15 -9 -27 -14 -27 -10 0 5
-4 4 -8 -2 -9 -13 -148 -81 -192 -94 -51 -15 -116 -19 -177 -9 -61 10 -183 61
-183 77 0 6 -5 11 -12 11 -19 0 -96 91 -122 145 -32 65 -40 104 -40 195 0 89
5 110 35 175 51 110 129 176 311 263 37 18 72 32 77 32 6 0 11 5 11 12 0 6 3
9 6 6 3 -4 29 4 57 17 55 24 242 87 267 89 9 1 20 5 25 8 9 5 78 21 145 32 14
3 25 5 25 6 0 2 58 10 180 25 33 4 62 9 63 10 6 6 425 -3 452 -9z m-100 -1851
c30 -10 76 -31 103 -47 26 -15 50 -28 54 -28 3 0 31 -26 62 -57 218 -222 219
-554 1 -774 -151 -154 -379 -202 -578 -123 -135 54 -231 142 -294 272 -46 94
-48 105 -52 226 -4 96 7 153 48 241 68 150 177 238 371 302 49 16 223 9 285
-12z"/>
</g>
</svg>
