<svg width="32" height="32" viewBox="0 0 32 32" fill="none" xmlns="http://www.w3.org/2000/svg">
<path d="M15.7575 18.655C16.8286 18.655 17.6969 17.7905 17.6969 16.724C17.6969 15.6575 16.8286 14.793 15.7575 14.793C14.6864 14.793 13.8181 15.6575 13.8181 16.724C13.8181 17.7905 14.6864 18.655 15.7575 18.655Z" stroke="#D5D5D5" stroke-miterlimit="10" stroke-linecap="square"/>
<path d="M21.3425 25.7605C23.3216 24.5494 24.8496 22.7281 25.6942 20.5734C26.5388 18.4187 26.6538 16.0483 26.0218 13.8226C25.3898 11.5968 24.0453 9.63729 22.1927 8.24185C20.34 6.84641 18.0805 6.09131 15.7575 6.09131C13.4345 6.09131 11.1749 6.84641 9.32228 8.24185C7.46964 9.63729 6.12515 11.5968 5.49316 13.8226C4.86116 16.0483 4.9762 18.4187 5.8208 20.5734C6.66539 22.7281 8.19337 24.5494 10.1725 25.7605" stroke="#D5D5D5" stroke-miterlimit="10" stroke-linecap="square"/>
<path d="M23.8698 30C26.6586 28.276 28.8116 25.6833 30.0017 22.6159C31.1918 19.5486 31.3539 16.1743 30.4634 13.0058C29.5729 9.83731 27.6784 7.04787 25.0678 5.06139C22.4573 3.07492 19.2734 2 16 2C12.7267 2 9.54279 3.07492 6.93224 5.06139C4.32169 7.04787 2.4272 9.83731 1.53666 13.0058C0.646115 16.1743 0.808218 19.5486 1.99833 22.6159C3.18844 25.6833 5.3415 28.276 8.1303 30" stroke="#D5D5D5" stroke-miterlimit="10" stroke-linecap="square"/>
<path d="M12.3636 22.0131C11.2135 21.2813 10.333 20.1975 9.85451 18.9247C9.37606 17.6519 9.3255 16.2588 9.71043 14.955C10.0954 13.6511 10.895 12.5068 11.9891 11.6943C13.0832 10.8817 14.4126 10.4447 15.7775 10.449C17.1425 10.4533 18.4691 10.8986 19.558 11.7181C20.6469 12.5375 21.4393 13.6867 21.8159 14.993C22.1926 16.2993 22.1332 17.692 21.6467 18.9618C21.1601 20.2316 20.2728 21.3098 19.118 22.0344" stroke="#D5D5D5" stroke-miterlimit="10" stroke-linecap="square"/>
</svg>
