<?xml version="1.0" encoding="utf-8"?>
<!-- Generated by IcoMoon.io -->
<!DOCTYPE svg PUBLIC "-//W3C//DTD SVG 1.1//EN" "http://www.w3.org/Graphics/SVG/1.1/DTD/svg11.dtd">
<svg version="1.1" xmlns="http://www.w3.org/2000/svg" xmlns:xlink="http://www.w3.org/1999/xlink" width="30" height="32" viewBox="0 0 30 32">
<path fill="#444" d="M29.681 27.826v0l-6.029-6.802c-0.464-0.464-1.237-0.618-1.855-0.155l-2.164 2.319c-1.082 0.773-2.473-0.309-4.792-2.473l-5.101-5.72c-1.082-1.546-2.010-3.092-0.928-4.019l2.628-1.855c0.618-0.464 0.618-1.237 0.155-1.7v0l-6.029-6.802c-0.464-0.464-1.237-0.618-1.855-0.155l-2.319 2.319c-1.391 1.391-4.174 7.729 5.72 19.169 10.203 11.903 17.778 10.512 19.633 9.43l2.783-1.7c0.618-0.618 0.618-1.391 0.155-1.855z"></path>
</svg>
