<?xml version="1.0" encoding="utf-8"?>
<!-- Generated by IcoMoon.io -->
<!DOCTYPE svg PUBLIC "-//W3C//DTD SVG 1.1//EN" "http://www.w3.org/Graphics/SVG/1.1/DTD/svg11.dtd">
<svg version="1.1" xmlns="http://www.w3.org/2000/svg" xmlns:xlink="http://www.w3.org/1999/xlink" width="54" height="32" viewBox="0 0 54 32">
<path fill="#444" d="M47.266 31.76l-10.102-15.845v15.845h-7.755v-31.515h6.78l10.105 15.845v-15.845h7.755v31.515h-6.783zM23.713 22.776c-0.192 1.062-0.508 2.074-0.953 3.031-0.444 0.96-1.078 1.851-1.905 2.679-1.152 1.149-2.423 2.028-3.81 2.633-1.389 0.605-3.059 0.907-5.008 0.907-1.951 0-3.621-0.301-5.008-0.907-1.389-0.605-2.661-1.484-3.813-2.633-0.827-0.827-1.461-1.719-1.905-2.679-0.444-0.958-0.761-1.969-0.953-3.031s-0.296-2.163-0.312-3.299c-0.015-1.134-0.020-2.293-0.020-3.473s0.005-2.339 0.020-3.476c0.015-1.134 0.12-2.234 0.312-3.297s0.508-2.074 0.953-3.031c0.444-0.96 1.078-1.854 1.905-2.679 1.152-1.152 2.423-2.028 3.813-2.635 1.387-0.603 3.057-0.907 5.008-0.907 1.948 0 3.619 0.304 5.008 0.907 1.387 0.608 2.658 1.484 3.81 2.635 0.827 0.825 1.461 1.719 1.905 2.679 0.444 0.958 0.761 1.969 0.953 3.031s0.296 2.163 0.312 3.297c0.013 1.136 0.020 2.296 0.020 3.476s-0.008 2.339-0.020 3.473c-0.015 1.136-0.12 2.237-0.312 3.299zM16.203 12.485c-0.061-0.901-0.133-1.624-0.222-2.171-0.089-0.544-0.207-0.965-0.355-1.261-0.148-0.294-0.309-0.559-0.488-0.797-0.296-0.38-0.707-0.707-1.241-0.973-0.531-0.266-1.152-0.398-1.859-0.398-0.71 0-1.33 0.133-1.862 0.398-0.534 0.266-0.947 0.592-1.241 0.973-0.179 0.238-0.34 0.503-0.488 0.797-0.148 0.296-0.266 0.718-0.355 1.261-0.089 0.546-0.163 1.269-0.222 2.171-0.059 0.899-0.087 2.074-0.087 3.519s0.028 2.61 0.087 3.496c0.059 0.886 0.133 1.601 0.222 2.148s0.207 0.965 0.355 1.262c0.148 0.294 0.309 0.562 0.488 0.797 0.294 0.383 0.707 0.715 1.241 0.996 0.531 0.281 1.152 0.419 1.862 0.419 0.707 0 1.328-0.138 1.859-0.419 0.534-0.281 0.945-0.613 1.241-0.996 0.179-0.235 0.34-0.503 0.488-0.797 0.148-0.296 0.266-0.715 0.355-1.262s0.161-1.262 0.222-2.148c0.059-0.886 0.087-2.051 0.087-3.496s-0.028-2.62-0.087-3.519z"></path>
</svg>
