<?xml version="1.0" encoding="utf-8"?>
<!-- Generator: Adobe Illustrator 19.0.0, SVG Export Plug-In . SVG Version: 6.00 Build 0)  -->
<svg version="1.1" id="Layer_1" xmlns="http://www.w3.org/2000/svg" xmlns:xlink="http://www.w3.org/1999/xlink" x="0px" y="0px"
	 width="32.4px" height="11.5px" viewBox="-292 144.7 32.4 11.5" style="enable-background:new -292 144.7 32.4 11.5;"
	 xml:space="preserve">
<g>
	<path d="M-287.2,156.2l-2.7-4.3v4.3h-2.1v-8.5h1.8l2.7,4.3v-4.3h2.1v8.5H-287.2z"/>
	<path d="M-283.6,156.2v-8.5h2.1v8.5H-283.6z M-282,146.9h-1.2l0.6-2.2h2L-282,146.9z"/>
	<path d="M-276.2,156.2h-1.6l-2.8-8.5h2.2l1.4,4.8l1.4-4.8h2.2L-276.2,156.2z"/>
	<path d="M-272.5,156.2v-8.5h5.8v1.9h-3.7v1.4h3.2v1.9h-3.2v1.5h3.7v1.9H-272.5z"/>
	<path d="M-265.3,156.2v-8.5h2.1v6.7h3.6v1.9H-265.3z"/>
</g>
</svg>
